<svg xmlns="http://www.w3.org/2000/svg" viewBox="0 0 57 57"><g id="Layer_2" data-name="Layer 2"><g id="Layer_1-2" data-name="Layer 1"><g id="building_1" data-name="building 1"><path id="Vector" d="M7.85,21.1H4.49v3.8H7.85Z"></path><path id="Vector_2" data-name="Vector 2" d="M13.13,21.1H9.87v3.8h3.26Z"></path><path id="Vector_3" data-name="Vector 3" d="M7.74,27.12H4.49v3.94H7.74Z"></path><path id="Vector_4" data-name="Vector 4" d="M13.24,27.12H9.87v3.94h3.37Z"></path><path id="Vector_5" data-name="Vector 5" d="M7.74,33.41H4.49v3.8H7.74Z"></path><path id="Vector_6" data-name="Vector 6" d="M13.24,33.41H9.87v3.8h3.37Z"></path><path id="Vector_7" data-name="Vector 7" d="M7.74,39.31H4.49v3.93H7.74Z"></path><path id="Vector_8" data-name="Vector 8" d="M13.24,39.31H9.87v3.93h3.37Z"></path><path id="Vector_9" data-name="Vector 9" d="M7.74,45.6H4.49v3.8H7.74Z"></path><path id="Vector_10" data-name="Vector 10" d="M13.24,45.6H9.87v3.8h3.37Z"></path><path id="Vector_11" data-name="Vector 11" d="M57,15.07H41.4V0H15.6V15.07H0V57H57ZM15.6,54.64H1.91V17.43H15.6V54.64Zm16.94.13H24.46V41h8.08Zm-10-16.11V54.77H17.62V2.23H39.38l-.11,52.54H34.56V38.66ZM55,54.64H41.4V17.43H55Z"></path><path id="Vector_12" data-name="Vector 12" d="M47.13,21.1H43.87v3.8h3.26Z"></path><path id="Vector_13" data-name="Vector 13" d="M52.51,21.1H49.15v3.8h3.36Z"></path><path id="Vector_14" data-name="Vector 14" d="M47.13,27.12H43.76v3.94h3.37Z"></path><path id="Vector_15" data-name="Vector 15" d="M52.51,27.12H49.26v3.94h3.25Z"></path><path id="Vector_16" data-name="Vector 16" d="M47.13,33.41H43.76v3.8h3.37Z"></path><path id="Vector_17" data-name="Vector 17" d="M52.51,33.41H49.26v3.8h3.25Z"></path><path id="Vector_18" data-name="Vector 18" d="M47.13,39.31H43.76v3.93h3.37Z"></path><path id="Vector_19" data-name="Vector 19" d="M52.51,39.31H49.26v3.93h3.25Z"></path><path id="Vector_20" data-name="Vector 20" d="M47.13,45.6H43.76v3.8h3.37Z"></path><path id="Vector_21" data-name="Vector 21" d="M52.51,45.6H49.26v3.8h3.25Z"></path><path id="Vector_22" data-name="Vector 22" d="M23.56,18.48H20.2v3.8h3.36Z"></path><path id="Vector_23" data-name="Vector 23" d="M36.58,18.48H33.21v3.8h3.37Z"></path><path id="Vector_24" data-name="Vector 24" d="M23.56,24.5H20.2v3.93h3.36Z"></path><path id="Vector_25" data-name="Vector 25" d="M36.58,24.5H33.32v3.93h3.26Z"></path><path id="Vector_26" data-name="Vector 26" d="M23.56,30.79H20.2v3.8h3.36Z"></path><path id="Vector_27" data-name="Vector 27" d="M36.58,30.79H33.32v3.8h3.26Z"></path><path id="Vector_28" data-name="Vector 28" d="M30.07,18.34H26.7v3.94h3.37Z"></path><path id="Vector_29" data-name="Vector 29" d="M23.56,12.32H20.2v3.8h3.36Z"></path><path id="Vector_30" data-name="Vector 30" d="M36.58,12.32H33.21v3.8h3.37Z"></path><path id="Vector_31" data-name="Vector 31" d="M30.07,12.32H26.7v3.8h3.37Z"></path><path id="Vector_32" data-name="Vector 32" d="M23.56,6.16H20.2V10h3.36Z"></path><path id="Vector_33" data-name="Vector 33" d="M36.58,6.16H33.21V10h3.37Z"></path><path id="Vector_34" data-name="Vector 34" d="M30.07,6.16H26.7V10h3.37Z"></path><path id="Vector_35" data-name="Vector 35" d="M30.07,24.5H26.7v3.8h3.37Z"></path><path id="Vector_36" data-name="Vector 36" d="M30.07,30.66H26.7v3.93h3.37Z"></path></g></g></g></svg>