<svg xmlns="http://www.w3.org/2000/svg" width="57" height="57" viewBox="0 0 57 57" fill="none"><path d="M7.85434 21.0967H4.48819V24.8967H7.85434V21.0967Z" fill="#565656"></path><path d="M13.128 21.0967H9.87402V24.8967H13.128V21.0967Z" fill="#565656"></path><path d="M7.74213 27.1243H4.48819V31.0553H7.74213V27.1243Z" fill="#565656"></path><path d="M13.2402 27.1243H9.87402V31.0553H13.2402V27.1243Z" fill="#565656"></path><path d="M7.74213 33.4138H4.48819V37.2138H7.74213V33.4138Z" fill="#565656"></path><path d="M13.2402 33.4138H9.87402V37.2138H13.2402V33.4138Z" fill="#565656"></path><path d="M7.74213 39.3103H4.48819V43.2413H7.74213V39.3103Z" fill="#565656"></path><path d="M13.2402 39.3103H9.87402V43.2413H13.2402V39.3103Z" fill="#565656"></path><path d="M7.74213 45.6001H4.48819V49.4001H7.74213V45.6001Z" fill="#565656"></path><path d="M13.2402 45.6001H9.87402V49.4001H13.2402V45.6001Z" fill="#565656"></path><path d="M57 15.069H41.4036V0H15.5965V15.069H0V57H57V15.069ZM15.5965 54.6414H1.90748V17.4276H15.5964V54.6414H15.5965ZM32.5394 54.7724H24.4606V41.0138H32.5394V54.7724ZM22.5531 38.6552V54.7724H17.6161V2.22758H39.3839L39.2717 54.7724H34.5591V38.6552H22.5531V38.6552ZM54.9803 54.6414H41.4036V17.4276H54.9803V54.6414Z" fill="#565656"></path><path d="M47.126 21.0967H43.8721V24.8967H47.126V21.0967Z" fill="#565656"></path><path d="M52.5118 21.0967H49.1457V24.8967H52.5118V21.0967Z" fill="#565656"></path><path d="M47.126 27.1243H43.7598V31.0553H47.126V27.1243Z" fill="#565656"></path><path d="M52.5118 27.1243H49.2579V31.0553H52.5118V27.1243Z" fill="#565656"></path><path d="M47.126 33.4138H43.7598V37.2138H47.126V33.4138Z" fill="#565656"></path><path d="M52.5118 33.4138H49.2579V37.2138H52.5118V33.4138Z" fill="#565656"></path><path d="M47.126 39.3103H43.7598V43.2413H47.126V39.3103Z" fill="#565656"></path><path d="M52.5118 39.3103H49.2579V43.2413H52.5118V39.3103Z" fill="#565656"></path><path d="M47.126 45.6001H43.7598V49.4001H47.126V45.6001Z" fill="#565656"></path><path d="M52.5118 45.6001H49.2579V49.4001H52.5118V45.6001Z" fill="#565656"></path><path d="M23.563 18.4758H20.1968V22.2758H23.563V18.4758Z" fill="#565656"></path><path d="M36.5787 18.4758H33.2126V22.2758H36.5787V18.4758Z" fill="#565656"></path><path d="M23.563 24.5034H20.1968V28.4345H23.563V24.5034Z" fill="#565656"></path><path d="M36.5787 24.5034H33.3248V28.4345H36.5787V24.5034Z" fill="#565656"></path><path d="M23.563 30.7932H20.1968V34.5932H23.563V30.7932Z" fill="#565656"></path><path d="M36.5787 30.7932H33.3248V34.5932H36.5787V30.7932Z" fill="#565656"></path><path d="M30.0709 18.3447H26.7047V22.2758H30.0709V18.3447Z" fill="#565656"></path><path d="M23.563 12.3171H20.1968V16.1171H23.563V12.3171Z" fill="#565656"></path><path d="M36.5787 12.3171H33.2126V16.1171H36.5787V12.3171Z" fill="#565656"></path><path d="M30.0709 12.3171H26.7047V16.1171H30.0709V12.3171Z" fill="#565656"></path><path d="M23.563 6.15869H20.1968V9.9587H23.563V6.15869Z" fill="#565656"></path><path d="M36.5787 6.15869H33.2126V9.9587H36.5787V6.15869Z" fill="#565656"></path><path d="M30.0709 6.15869H26.7047V9.9587H30.0709V6.15869Z" fill="#565656"></path><path d="M30.0709 24.5034H26.7047V28.3034H30.0709V24.5034Z" fill="#565656"></path><path d="M30.0709 30.6621H26.7047V34.5931H30.0709V30.6621Z" fill="#565656"></path></svg>