<svg xmlns="http://www.w3.org/2000/svg" width="21" height="21" viewBox="0 0 21 21" fill="none"><path d="M10.832 1.51074C9.00934 1.51289 7.2619 2.23791 5.97305 3.52676C4.68421 4.8156 3.95919 6.56304 3.95704 8.38574C3.95486 9.87526 4.4414 11.3244 5.34204 12.5107C5.34204 12.5107 5.52954 12.7576 5.56016 12.7932L10.832 19.0107L16.1064 12.7901C16.1339 12.757 16.322 12.5107 16.322 12.5107L16.3227 12.5089C17.2229 11.323 17.7092 9.87457 17.707 8.38574C17.7049 6.56304 16.9799 4.8156 15.691 3.52676C14.4022 2.23791 12.6547 1.51289 10.832 1.51074ZM10.832 10.8857C10.3376 10.8857 9.85424 10.7391 9.44311 10.4644C9.03199 10.1897 8.71156 9.79927 8.52234 9.34245C8.33312 8.88564 8.28361 8.38297 8.38008 7.89802C8.47654 7.41306 8.71464 6.96761 9.06427 6.61798C9.4139 6.26834 9.85936 6.03024 10.3443 5.93378C10.8293 5.83732 11.3319 5.88682 11.7887 6.07604C12.2456 6.26526 12.636 6.58569 12.9107 6.99682C13.1854 7.40794 13.332 7.89129 13.332 8.38574C13.3312 9.04853 13.0676 9.68393 12.5989 10.1526C12.1302 10.6213 11.4948 10.8849 10.832 10.8857Z" fill="white"></path></svg>