<svg xmlns="http://www.w3.org/2000/svg" width="57" height="57" viewBox="0 0 57 57" fill="none"><path d="M43.1953 16.4766H13.8047C13.5685 16.4766 13.3419 16.5704 13.1749 16.7374C13.0079 16.9044 12.9141 17.131 12.9141 17.3672C12.9141 17.6034 13.0079 17.8299 13.1749 17.997C13.3419 18.164 13.5685 18.2578 13.8047 18.2578H43.1953C43.4315 18.2578 43.6581 18.164 43.8251 17.997C43.9921 17.8299 44.0859 17.6034 44.0859 17.3672C44.0859 17.131 43.9921 16.9044 43.8251 16.7374C43.6581 16.5704 43.4315 16.4766 43.1953 16.4766ZM44.0859 21.8204C44.0859 21.5842 43.9921 21.3576 43.8251 21.1906C43.658 21.0236 43.4315 20.9297 43.1953 20.9297H13.8047C13.5685 20.9297 13.3419 21.0236 13.1749 21.1906C13.0079 21.3576 12.9141 21.5842 12.9141 21.8204C12.9141 22.0566 13.0079 22.2831 13.1749 22.4501C13.3419 22.6172 13.5685 22.711 13.8047 22.711H43.1953C43.4315 22.711 43.658 22.6171 43.8251 22.4501C43.9921 22.2831 44.0859 22.0566 44.0859 21.8204ZM27.1641 26.2735C27.164 26.0373 27.0702 25.8108 26.9032 25.6438C26.7362 25.4768 26.5096 25.3829 26.2734 25.3829H13.8047C13.5685 25.3829 13.3419 25.4767 13.1749 25.6438C13.0079 25.8108 12.9141 26.0373 12.9141 26.2735C12.9141 26.5097 13.0079 26.7363 13.1749 26.9033C13.3419 27.0703 13.5685 27.1642 13.8047 27.1642H26.2734C26.5096 27.1641 26.7362 27.0703 26.9032 26.9033C27.0702 26.7363 27.164 26.5097 27.1641 26.2735ZM12.9141 34.7345C12.9141 35.4391 13.123 36.1279 13.5145 36.7137C13.9059 37.2996 14.4623 37.7562 15.1133 38.0258C15.7642 38.2955 16.4805 38.366 17.1716 38.2286C17.8626 38.0911 18.4974 37.7518 18.9956 37.2536C19.4939 36.7553 19.8332 36.1206 19.9706 35.4295C20.1081 34.7384 20.0375 34.0222 19.7679 33.3712C19.4982 32.7202 19.0416 32.1638 18.4558 31.7724C17.8699 31.3809 17.1812 31.172 16.4766 31.172C15.5321 31.1731 14.6265 31.5488 13.9587 32.2166C13.2908 32.8845 12.9151 33.79 12.9141 34.7345ZM18.2578 34.7345C18.2578 35.0868 18.1533 35.4312 17.9576 35.7241C17.7619 36.0171 17.4837 36.2454 17.1582 36.3802C16.8327 36.515 16.4746 36.5503 16.1291 36.4816C15.7835 36.4128 15.4661 36.2432 15.217 35.9941C14.9679 35.745 14.7983 35.4276 14.7295 35.082C14.6608 34.7365 14.6961 34.3784 14.8309 34.0529C14.9657 33.7274 15.194 33.4492 15.487 33.2535C15.7799 33.0578 16.1243 32.9533 16.4766 32.9533C16.949 32.9533 17.402 33.141 17.7361 33.475C18.0701 33.8091 18.2578 34.2621 18.2578 34.7345Z" fill="#565656"></path><path d="M54.3281 4.45312H2.67188C1.96348 4.4539 1.28433 4.73565 0.783424 5.23656C0.282518 5.73747 0.000770873 6.41663 0 7.12502L0 43.641C0.000770873 44.3494 0.282518 45.0285 0.783424 45.5294C1.28433 46.0303 1.96348 46.3121 2.67188 46.3129H29.6569L30.9285 44.5316H2.67188C2.43576 44.5313 2.20941 44.4374 2.04245 44.2704C1.87549 44.1035 1.78156 43.8771 1.78125 43.641V7.12502C1.78156 6.88891 1.87549 6.66255 2.04245 6.49559C2.20941 6.32864 2.43576 6.2347 2.67188 6.2344H54.3281C54.5642 6.2347 54.7906 6.32864 54.9576 6.49559C55.1245 6.66255 55.2184 6.88891 55.2188 7.12502V43.641C55.2184 43.8771 55.1245 44.1035 54.9576 44.2704C54.7906 44.4374 54.5642 44.5313 54.3281 44.5316H48.3374L49.6091 46.3129H54.3281C55.0365 46.3121 55.7157 46.0303 56.2166 45.5294C56.7175 45.0285 56.9992 44.3493 57 43.641V7.12502C56.9992 6.41663 56.7175 5.73747 56.2166 5.23656C55.7157 4.73565 55.0365 4.4539 54.3281 4.45312Z" fill="#565656"></path><path d="M36.92 47.7993L35.3645 49.9507L35.1879 49.0796C35.1495 48.7787 34.9974 48.5039 34.7626 48.3116C34.6336 48.2062 34.4844 48.1282 34.3241 48.0825C34.1638 48.0369 33.9959 48.0244 33.8307 48.0459L32.7165 48.1581L34.4127 45.7819C33.8115 45.6606 33.2439 45.4095 32.7497 45.0462L30.5096 48.1842C30.3719 48.3714 30.2931 48.5954 30.2831 48.8275C30.2731 49.0597 30.3324 49.2896 30.4535 49.488C30.5763 49.6883 30.7548 49.8487 30.9671 49.9495C31.1794 50.0503 31.4164 50.0873 31.6494 50.0559L33.5298 49.8663L33.8611 51.501C33.8886 51.7309 33.9831 51.9476 34.1329 52.1242C34.2827 52.3007 34.4812 52.4293 34.7035 52.4938C34.8194 52.529 34.9399 52.5469 35.061 52.5469C35.2525 52.547 35.4414 52.502 35.6124 52.4156C35.7834 52.3292 35.9316 52.2037 36.0451 52.0494L39.2498 47.6166C38.7825 47.8061 38.284 47.9072 37.7798 47.9146C37.4894 47.9137 37.2003 47.875 36.92 47.7993ZM46.5159 45.0461C46.0217 45.4094 45.4541 45.6605 44.8528 45.7819L46.5491 48.1581L45.4349 48.0459C45.2697 48.0243 45.1017 48.0368 44.9415 48.0825C44.7812 48.1282 44.632 48.2061 44.503 48.3116C44.2682 48.5038 44.116 48.7787 44.0777 49.0796L43.9011 49.9502L42.3426 47.7948C41.5673 47.9868 40.7506 47.9235 40.0141 47.6142L43.2249 52.0555C43.3382 52.2084 43.4859 52.3325 43.656 52.4179C43.8261 52.5033 44.0139 52.5475 44.2042 52.5469C44.3255 52.5468 44.4461 52.529 44.5621 52.4939C44.7845 52.4293 44.9829 52.3007 45.1327 52.1242C45.2825 51.9477 45.377 51.7309 45.4045 51.501L45.7359 49.8663L47.6163 50.0559C47.8492 50.0875 48.0863 50.0506 48.2987 49.9498C48.511 49.8489 48.6894 49.6885 48.8122 49.488C48.9328 49.2913 48.9924 49.0632 48.9835 48.8327C48.9746 48.6021 48.8976 48.3793 48.7622 48.1925L46.5159 45.0461ZM41.9729 46.0555C42.5572 45.801 43.0187 45.3279 43.2584 44.7374C43.3402 44.5671 43.4409 44.4065 43.5584 44.2586C43.7391 44.189 43.9272 44.1406 44.119 44.1142C44.4363 44.1223 44.7508 44.0533 45.0356 43.9131C45.3204 43.7729 45.5669 43.5657 45.754 43.3093C45.9411 43.0528 46.0631 42.7549 46.1098 42.4409C46.1564 42.1269 46.1261 41.8063 46.0216 41.5066C45.9871 41.3137 45.9751 41.1174 45.9859 40.9217C46.0882 40.7679 46.2072 40.6258 46.3408 40.4981C46.8329 40.0845 47.1426 39.4939 47.2031 38.8539C47.1426 38.2139 46.8329 37.6233 46.3408 37.2096C46.2082 37.0826 46.0897 36.9418 45.9872 36.7895C45.9751 36.5927 45.9867 36.3952 46.0216 36.2011C46.1744 35.5904 46.0793 34.9441 45.7572 34.4033C45.3396 33.9275 44.7506 33.6364 44.119 33.5936C43.9282 33.5671 43.7411 33.5192 43.561 33.4509C43.4421 33.3026 43.3404 33.1412 43.2579 32.9699C43.0185 32.3794 42.5569 31.9063 41.9724 31.6523C41.364 31.5156 40.7263 31.6246 40.1977 31.9554C40.0194 32.0517 39.8296 32.1252 39.6328 32.1741C39.4361 32.1252 39.2463 32.0517 39.0679 31.9554C38.5391 31.6248 37.9013 31.5159 37.2927 31.6523C36.7084 31.9067 36.247 32.3799 36.0073 32.9704C35.9254 33.1407 35.8248 33.3013 35.7072 33.4492C35.5265 33.5187 35.3384 33.5672 35.1466 33.5936C34.5151 33.6363 33.9261 33.9272 33.5085 34.4029C33.1863 34.9439 33.0913 35.5903 33.2441 36.2011C33.2785 36.394 33.2905 36.5903 33.2797 36.786C33.1774 36.9399 33.0584 37.0819 32.9249 37.2096C32.4328 37.6233 32.123 38.2139 32.0625 38.8539C32.123 39.4939 32.4328 40.0845 32.9249 40.4982C33.0574 40.6251 33.1759 40.766 33.2784 40.9182C33.2905 41.115 33.279 41.3126 33.2441 41.5066C33.1396 41.8063 33.1094 42.1269 33.1561 42.4408C33.2027 42.7548 33.3248 43.0527 33.5119 43.3091C33.6989 43.5655 33.9454 43.7727 34.2301 43.9129C34.5149 44.0531 34.8294 44.1222 35.1466 44.1142C35.3374 44.1406 35.5245 44.1885 35.7046 44.2568C35.8235 44.4051 35.9252 44.5665 36.0077 44.7378C36.2472 45.3284 36.7087 45.8015 37.2932 46.0555C37.4516 46.1069 37.6172 46.1329 37.7837 46.1325C38.2346 46.1023 38.6732 45.9725 39.0679 45.7524C39.2463 45.656 39.4361 45.5825 39.6328 45.5336C39.8296 45.5825 40.0194 45.656 40.1977 45.7524C40.7265 46.0829 41.3643 46.1918 41.9729 46.0555ZM38.3077 44.1416C38.1578 44.2169 38.0031 44.2824 37.8446 44.3377C37.7434 44.1938 37.6524 44.043 37.5724 43.8863C37.4074 43.4571 37.1216 43.0849 36.7495 42.8147C36.3774 42.5445 35.9351 42.3879 35.4759 42.3638C35.3039 42.3358 35.134 42.296 34.9675 42.2446C34.9702 42.0728 34.9848 41.9013 35.011 41.7315C35.1005 41.2799 35.0875 40.814 34.9727 40.3681C34.8068 39.9504 34.5484 39.5757 34.2169 39.2722C34.0864 39.1427 33.9667 39.0028 33.859 38.8538C33.9667 38.7049 34.0864 38.565 34.2169 38.4355C34.5484 38.132 34.8068 37.7573 34.9727 37.3396C35.0875 36.8936 35.1005 36.4275 35.011 35.9758C34.9849 35.8059 34.9704 35.6345 34.9675 35.4626C35.1341 35.4116 35.3039 35.372 35.4759 35.3439C35.9352 35.3202 36.3777 35.1638 36.7499 34.8935C37.122 34.6233 37.4077 34.2508 37.5724 33.8214C37.6523 33.6647 37.7433 33.5138 37.8446 33.37C38.0031 33.4252 38.1578 33.4908 38.3077 33.5661C38.703 33.8202 39.1629 33.9553 39.6328 33.9553C40.1027 33.9553 40.5626 33.8202 40.9579 33.5661C41.1078 33.4908 41.2625 33.4252 41.421 33.37C41.5222 33.5139 41.6132 33.6647 41.6932 33.8214C41.8582 34.2506 42.144 34.6228 42.5161 34.893C42.8882 35.1632 43.3306 35.3198 43.7898 35.3439C43.9618 35.3719 44.1316 35.4117 44.2981 35.4631C44.2954 35.6349 44.2809 35.8064 44.2546 35.9762C44.1651 36.4278 44.1782 36.8937 44.2929 37.3396C44.4589 37.7573 44.7173 38.132 45.0487 38.4355C45.1792 38.565 45.2989 38.7049 45.4066 38.8538C45.2989 39.0028 45.1792 39.1427 45.0487 39.2722C44.7173 39.5757 44.4589 39.9504 44.2929 40.3681C44.1782 40.8141 44.1651 41.2802 44.2546 41.7319C44.2807 41.9018 44.2952 42.0732 44.2981 42.2451C44.1316 42.2961 43.9617 42.3357 43.7898 42.3638C43.3305 42.3875 42.8879 42.5439 42.5158 42.8142C42.1436 43.0844 41.8579 43.4569 41.6932 43.8863C41.6133 44.043 41.5223 44.1939 41.421 44.3377C41.2625 44.2824 41.1078 44.2169 40.9579 44.1416C40.5626 43.8875 40.1027 43.7524 39.6328 43.7524C39.1629 43.7524 38.703 43.8875 38.3077 44.1416Z" fill="#565656"></path><path d="M42.75 38.8537C42.75 38.2372 42.5672 37.6345 42.2246 37.1219C41.8821 36.6093 41.3953 36.2098 40.8257 35.9738C40.2561 35.7379 39.6293 35.6762 39.0247 35.7965C38.42 35.9168 37.8646 36.2136 37.4286 36.6496C36.9927 37.0855 36.6958 37.641 36.5755 38.2456C36.4552 38.8503 36.517 39.4771 36.7529 40.0467C36.9888 40.6163 37.3884 41.1031 37.901 41.4456C38.4136 41.7881 39.0163 41.971 39.6328 41.971C40.4592 41.9699 41.2515 41.6412 41.8359 41.0568C42.4203 40.4725 42.749 39.6802 42.75 38.8537ZM39.6328 40.1897C39.3686 40.1897 39.1103 40.1113 38.8906 39.9645C38.6709 39.8177 38.4997 39.6091 38.3986 39.365C38.2975 39.1209 38.271 38.8523 38.3225 38.5931C38.3741 38.334 38.5013 38.0959 38.6882 37.9091C38.875 37.7223 39.113 37.595 39.3722 37.5435C39.6313 37.4919 39.8999 37.5184 40.1441 37.6195C40.3882 37.7206 40.5968 37.8918 40.7436 38.1115C40.8904 38.3312 40.9688 38.5895 40.9688 38.8537C40.9684 39.2079 40.8275 39.5475 40.577 39.798C40.3266 40.0484 39.987 40.1893 39.6328 40.1897V40.1897Z" fill="#565656"></path><path d="M51.6562 42.7503C52.1285 42.7498 52.5813 42.562 52.9153 42.2281C53.2492 41.8941 53.437 41.4413 53.4375 40.969V9.79687C53.437 9.3246 53.2492 8.87181 52.9153 8.53786C52.5813 8.20391 52.1285 8.0161 51.6562 8.01562H5.34375C4.87148 8.0161 4.41868 8.20391 4.08474 8.53786C3.75079 8.87181 3.56297 9.3246 3.5625 9.79687V40.969C3.56297 41.4413 3.75079 41.8941 4.08474 42.228C4.41868 42.562 4.87148 42.7498 5.34375 42.7503H31.4423C31.395 42.3435 31.3966 41.9325 31.4471 41.5261C31.2851 41.3497 31.1338 41.1637 30.9942 40.969H5.34375V16.7341L12.2078 9.86993C12.229 9.84667 12.2489 9.82228 12.2675 9.79687H44.7325C44.751 9.82228 44.771 9.84667 44.7922 9.86993L51.6565 16.7343L51.6576 40.969H48.2713C48.1316 41.1636 47.9804 41.3496 47.8185 41.5261C47.869 41.9325 47.8706 42.3435 47.8233 42.7503L51.6562 42.7503ZM5.34375 14.2152V9.79686H9.76209L5.34375 14.2152ZM47.2379 9.79686H51.6562L51.6564 14.2154L47.2379 9.79686Z" fill="#565656"></path></svg>