<svg xmlns="http://www.w3.org/2000/svg" viewBox="0 0 57 48.1"><g id="Layer_2" data-name="Layer 2"><g id="Layer_1-2" data-name="Layer 1"><path d="M43.19,12H13.81a.89.89,0,1,0,0,1.78H43.19a.89.89,0,0,0,0-1.78Zm.89,5.35a.89.89,0,0,0-.89-.89H13.81a.89.89,0,1,0,0,1.78H43.19a.89.89,0,0,0,.89-.89ZM27.16,21.82a.89.89,0,0,0-.89-.89H13.81a.89.89,0,1,0,0,1.78H26.27a.89.89,0,0,0,.89-.89ZM12.91,30.28A3.57,3.57,0,0,0,20,30.4v-.12a3.57,3.57,0,0,0-7.13,0Zm5.35,0a1.79,1.79,0,1,1-1.78-1.78A1.78,1.78,0,0,1,18.26,30.28Z"></path><path d="M54.33,0H2.67A2.68,2.68,0,0,0,0,2.67V39.19a2.68,2.68,0,0,0,2.67,2.67h27l1.27-1.78H2.67a.89.89,0,0,1-.89-.89V2.67a.89.89,0,0,1,.89-.89H54.33a.89.89,0,0,1,.89.89V39.19a.89.89,0,0,1-.89.89h-6l1.27,1.78h4.72A2.68,2.68,0,0,0,57,39.19V2.67A2.68,2.68,0,0,0,54.33,0Z"></path><path d="M36.92,43.35,35.36,45.5l-.17-.87a1.18,1.18,0,0,0-.43-.77,1.24,1.24,0,0,0-.93-.27l-1.11.12,1.69-2.38a4.08,4.08,0,0,1-1.66-.74l-2.24,3.14A1.2,1.2,0,0,0,30.45,45a1.22,1.22,0,0,0,1.2.56l1.88-.19.33,1.64a1.18,1.18,0,0,0,.84,1,1.24,1.24,0,0,0,.91-.08,1.27,1.27,0,0,0,.44-.36l3.2-4.44a4.15,4.15,0,0,1-1.47.3,3.56,3.56,0,0,1-.86-.11Zm9.6-2.76a4.18,4.18,0,0,1-1.67.74l1.7,2.37-1.11-.11a1.26,1.26,0,0,0-.94.27,1.21,1.21,0,0,0-.42.77l-.18.87-1.56-2.16A3.73,3.73,0,0,1,40,43.16l3.21,4.44a1.22,1.22,0,0,0,1.34.44,1.18,1.18,0,0,0,.85-1l.33-1.64,1.88.19A1.2,1.2,0,0,0,48.81,45a1.15,1.15,0,0,0-.05-1.29l-2.24-3.15ZM42,41.6a2.42,2.42,0,0,0,1.29-1.32,2.09,2.09,0,0,1,.3-.47,2.73,2.73,0,0,1,.56-.15,2,2,0,0,0,2-1.91,1.87,1.87,0,0,0-.11-.7,2.82,2.82,0,0,1,0-.58,2.44,2.44,0,0,1,.35-.43,2.44,2.44,0,0,0,.86-1.64,2.44,2.44,0,0,0-.86-1.64,2.79,2.79,0,0,1-.35-.42,2.32,2.32,0,0,1,0-.59,2.41,2.41,0,0,0-.26-1.8,2.38,2.38,0,0,0-1.64-.81,2.7,2.7,0,0,1-.56-.14,2.41,2.41,0,0,1-.3-.48A2.42,2.42,0,0,0,42,27.2a2.34,2.34,0,0,0-1.77.3,2.32,2.32,0,0,1-.57.22,2.41,2.41,0,0,1-.56-.22,2.37,2.37,0,0,0-1.78-.3A2.43,2.43,0,0,0,36,28.52a2.41,2.41,0,0,1-.3.48,2.7,2.7,0,0,1-.56.14,2.38,2.38,0,0,0-1.64.81,2.41,2.41,0,0,0-.27,1.8,2.27,2.27,0,0,1,0,.58,2.44,2.44,0,0,1-.35.43,2.41,2.41,0,0,0-.87,1.64,2.45,2.45,0,0,0,.87,1.65,2.3,2.3,0,0,1,.35.41,2.31,2.31,0,0,1,0,.59,2,2,0,0,0,1.21,2.5,1.84,1.84,0,0,0,.7.11,3.53,3.53,0,0,1,.56.14,3,3,0,0,1,.3.48,2.43,2.43,0,0,0,1.28,1.32,1.67,1.67,0,0,0,.49.08,3.06,3.06,0,0,0,1.29-.38,2.41,2.41,0,0,1,.56-.22,2.32,2.32,0,0,1,.57.22A2.34,2.34,0,0,0,42,41.6Zm-3.66-1.91a3.85,3.85,0,0,1-.47.19,3.35,3.35,0,0,1-.27-.45,2.39,2.39,0,0,0-2.09-1.52,3.81,3.81,0,0,1-.51-.12,2.92,2.92,0,0,1,0-.51,3,3,0,0,0,0-1.37,2.92,2.92,0,0,0-.75-1.09,3.62,3.62,0,0,1-.36-.42,3.62,3.62,0,0,1,.36-.42A2.92,2.92,0,0,0,35,32.89a3,3,0,0,0,0-1.37A2.92,2.92,0,0,1,35,31a3.81,3.81,0,0,1,.51-.12,2.37,2.37,0,0,0,2.09-1.52,3.35,3.35,0,0,1,.27-.45,3.85,3.85,0,0,1,.47.19,2.45,2.45,0,0,0,2.65,0,3.71,3.71,0,0,1,.46-.19,3.35,3.35,0,0,1,.27.45,2.38,2.38,0,0,0,2.1,1.52,4.7,4.7,0,0,1,.51.12,4.38,4.38,0,0,1,0,.51,3.17,3.17,0,0,0,0,1.37A3.07,3.07,0,0,0,45.05,34a3.62,3.62,0,0,1,.36.42,3.62,3.62,0,0,1-.36.42,3.07,3.07,0,0,0-.76,1.09,3.17,3.17,0,0,0,0,1.37,4.38,4.38,0,0,1,0,.51,4.7,4.7,0,0,1-.51.12,2.4,2.4,0,0,0-2.1,1.52,3.35,3.35,0,0,1-.27.45,3.71,3.71,0,0,1-.46-.19A2.45,2.45,0,0,0,38.31,39.69Z"></path><path d="M42.75,34.4a3.12,3.12,0,0,0-6.23-.11v.11a3.12,3.12,0,0,0,6.23,0Zm-3.12,1.34a1.34,1.34,0,0,1,0-2.68h0a1.34,1.34,0,0,1,0,2.68Z"></path><path d="M51.66,38.3a1.78,1.78,0,0,0,1.78-1.78V5.34a1.78,1.78,0,0,0-1.78-1.78H5.34A1.78,1.78,0,0,0,3.56,5.34V36.52A1.78,1.78,0,0,0,5.34,38.3h26.1a5.06,5.06,0,0,1,0-1.23,4.79,4.79,0,0,1-.46-.55H5.34V12.28l6.87-6.86.06-.08H44.73l.06.08,6.87,6.86V36.52H48.27a6,6,0,0,1-.45.55,5.06,5.06,0,0,1,0,1.23ZM5.34,9.76V5.34H9.76Zm41.9-4.42h4.42V9.76Z"></path></g></g></svg>