<svg xmlns="http://www.w3.org/2000/svg" width="21" height="21" viewBox="0 0 21 21" fill="none"><path d="M18.832 7.63374V14.7607C18.832 15.4238 18.5686 16.0597 18.0998 16.5285C17.631 16.9973 16.9951 17.2607 16.332 17.2607H5.33203C4.66899 17.2607 4.03311 16.9973 3.56426 16.5285C3.09542 16.0597 2.83203 15.4238 2.83203 14.7607V7.63374L10.578 12.1917C10.655 12.2371 10.7427 12.2611 10.832 12.2611C10.9214 12.2611 11.0091 12.2371 11.086 12.1917L18.832 7.63374ZM16.332 4.26074C16.9472 4.26065 17.5408 4.48735 17.9992 4.89748C18.4577 5.30762 18.7489 5.87238 18.817 6.48374L10.832 11.1807L2.84703 6.48374C2.91519 5.87238 3.20636 5.30762 3.66483 4.89748C4.1233 4.48735 4.71688 4.26065 5.33203 4.26074H16.332Z" fill="white"></path></svg>