<svg xmlns="http://www.w3.org/2000/svg" width="21" height="21" viewBox="0 0 21 21" fill="none"><path d="M7.81897 2.32684C8.25655 2.19491 8.72612 2.21683 9.14951 2.38895C9.5729 2.56107 9.92457 2.87301 10.146 3.27284L10.22 3.42184L10.882 4.89284C11.0829 5.33933 11.1481 5.83502 11.0695 6.31828C10.9909 6.80153 10.772 7.25102 10.44 7.61084L10.307 7.74284L9.26397 8.71584C9.07597 8.89384 9.21697 9.58284 9.89697 10.7608C10.509 11.8208 11.007 12.3158 11.252 12.3428H11.295L11.348 12.3328L13.398 11.7058C13.6735 11.6213 13.9675 11.618 14.2449 11.6962C14.5222 11.7744 14.7712 11.9309 14.962 12.1468L15.053 12.2618L16.41 14.1418C16.6759 14.5103 16.8084 14.9584 16.7857 15.4123C16.763 15.8662 16.5864 16.2988 16.285 16.6388L16.163 16.7648L15.621 17.2788C15.1343 17.7398 14.5254 18.0512 13.8669 18.1762C13.2083 18.3012 12.5277 18.2344 11.906 17.9838C9.97097 17.2038 8.21297 15.4218 6.61597 12.6558C5.01597 9.88284 4.35097 7.46584 4.64797 5.39584C4.73784 4.77011 4.99551 4.1804 5.39361 3.68934C5.7917 3.19828 6.31536 2.8242 6.90897 2.60684L7.10197 2.54284L7.81897 2.32684Z" fill="white"></path></svg>