<svg xmlns="http://www.w3.org/2000/svg" width="57" height="57" viewBox="0 0 57 57" fill="none"><path d="M32.1198 31.7377C32.0106 31.7291 31.901 31.726 31.7914 31.7285H30.5919C30.5649 31.7262 30.5378 31.7256 30.5108 31.7266C30.8558 31.4291 31.133 31.0611 31.3238 30.6475C31.5146 30.2339 31.6147 29.7842 31.6172 29.3287V28.4176C31.6172 27.5761 31.2829 26.7691 30.6879 26.1741C30.0929 25.579 29.2858 25.2447 28.4443 25.2447C27.6028 25.2447 26.7958 25.579 26.2008 26.1741C25.6058 26.7691 25.2715 27.5761 25.2715 28.4176V29.3287C25.2715 30.279 25.6723 31.1719 26.3375 31.7285H25.2087C24.3452 31.7281 23.5166 32.0691 22.9034 32.6772C22.2903 33.2852 21.9424 34.111 21.9356 34.9745C21.9356 35.0676 21.9319 35.158 21.9319 35.251V42.2122C21.9343 42.4915 21.9927 42.7676 22.1036 43.024C22.2145 43.2805 22.3756 43.5121 22.5776 43.7052C22.7808 43.9017 23.0207 44.0562 23.2838 44.1597C23.5468 44.2633 23.8277 44.3139 24.1103 44.3086H24.111L24.135 44.3334C24.2908 44.3353 24.4462 44.3199 24.5985 44.2872L24.8925 54.1896C24.9064 54.6024 25.0336 55.0034 25.2602 55.3487C25.4868 55.694 25.8041 55.9703 26.1773 56.1472C26.5505 56.3242 26.9652 56.395 27.376 56.352C27.7867 56.3089 28.1777 56.1537 28.5061 55.9032C28.8343 56.1546 29.2254 56.3106 29.6364 56.3541C30.0475 56.3977 30.4626 56.327 30.8361 56.1499C31.2096 55.9728 31.5271 55.6962 31.7536 55.3503C31.98 55.0045 32.1068 54.603 32.1198 54.1898L32.4135 44.3045C32.5746 44.3403 32.7391 44.3586 32.9041 44.3591C33.4754 44.3591 34.0235 44.1332 34.429 43.7307C34.8344 43.3282 35.0642 42.7818 35.0684 42.2105V35.2511C35.0684 34.4024 34.8709 33.577 34.3309 32.9154C34.058 32.5832 33.7222 32.3082 33.3428 32.1061C32.9633 31.9041 32.5478 31.7789 32.1198 31.7377ZM27.0527 28.4176C27.0523 28.2372 27.0877 28.0584 27.1569 27.8918C27.2261 27.7252 27.3277 27.574 27.4559 27.447C27.5841 27.32 27.7362 27.2197 27.9035 27.152C28.0707 27.0843 28.2498 27.0506 28.4302 27.0527H28.4394C28.6209 27.0502 28.801 27.0836 28.9695 27.151C29.138 27.2183 29.2915 27.3182 29.4212 27.445C29.551 27.5719 29.6544 27.7231 29.7256 27.89C29.7968 28.0569 29.8343 28.2362 29.8359 28.4176V29.3287C29.8359 29.6978 29.6893 30.0517 29.4283 30.3127C29.1674 30.5737 28.8134 30.7203 28.4443 30.7203C28.0753 30.7203 27.7213 30.5737 27.4603 30.3127C27.1994 30.0517 27.0527 29.6978 27.0527 29.3287V28.4176ZM28.4203 32.4973C28.856 32.4976 29.2871 32.4075 29.6862 32.2327L28.5111 33.3355L27.5124 32.3641C27.8069 32.4525 28.1128 32.4974 28.4203 32.4973ZM29.8652 54.5862C29.7399 54.5861 29.6196 54.5365 29.5307 54.4482C29.4418 54.3598 29.3915 54.2399 29.3906 54.1146V43.8235C29.3906 43.5873 29.2968 43.3608 29.1298 43.1937C28.9627 43.0267 28.7362 42.9329 28.5 42.9329C28.2638 42.9329 28.0373 43.0267 27.8702 43.1937C27.7032 43.3608 27.6094 43.5873 27.6094 43.8235V54.1146C27.6097 54.1763 27.5978 54.2375 27.5743 54.2947C27.5509 54.3518 27.5165 54.4037 27.473 54.4476C27.4295 54.4914 27.3777 54.5262 27.3207 54.5499C27.2638 54.5737 27.2027 54.586 27.1409 54.5862C27.0201 54.5877 26.9034 54.542 26.8157 54.4589C26.728 54.3757 26.6761 54.2616 26.6712 54.1408L26.3275 42.5273H30.6846L30.338 54.1354C30.3335 54.2573 30.2816 54.3727 30.1932 54.4569C30.1049 54.5411 29.9872 54.5875 29.8652 54.5862ZM33.276 35.1197C33.273 35.1495 33.2871 35.1796 33.2871 35.2096V42.2108C33.2813 42.3102 33.2377 42.4036 33.1653 42.4719C33.0928 42.5403 32.997 42.5783 32.8975 42.5783C32.7979 42.5783 32.7021 42.5403 32.6297 42.4719C32.5572 42.4036 32.5136 42.3102 32.5078 42.2108V40.6897L32.5147 40.456C32.5161 40.4109 32.5078 40.3669 32.5078 40.3232V37.5246C32.5078 37.2884 32.414 37.0618 32.247 36.8948C32.0799 36.7278 31.8534 36.6339 31.6172 36.6339C31.381 36.6339 31.1544 36.7278 30.9874 36.8948C30.8204 37.0618 30.7266 37.2884 30.7266 37.5246V40.6661L30.7377 40.7461H26.2747L26.2725 40.4065C26.2717 40.3769 26.2734 40.3438 26.2734 40.3151V37.5246C26.2734 37.2884 26.1796 37.0618 26.0126 36.8948C25.8456 36.7278 25.619 36.6339 25.3828 36.6339C25.1466 36.6339 24.9201 36.7278 24.753 36.8948C24.586 37.0618 24.4922 37.2884 24.4922 37.5246V42.1764C24.4915 42.2237 24.4814 42.2704 24.4625 42.3137C24.4436 42.3571 24.4162 42.3962 24.382 42.4289C24.3478 42.4615 24.3075 42.4871 24.2633 42.504C24.2192 42.5209 24.1721 42.5288 24.1248 42.5273H24.1107L24.0947 42.5524C24.0473 42.5553 23.9996 42.5489 23.9547 42.5333C23.9097 42.5178 23.8683 42.4935 23.8327 42.4618C23.7972 42.4301 23.7683 42.3917 23.7478 42.3488C23.7272 42.3059 23.7153 42.2593 23.7129 42.2118V35.2093C23.7129 35.1792 23.7273 35.1492 23.724 35.1194C23.7215 35.0699 23.7215 35.0202 23.724 34.9706C23.7243 34.7775 23.763 34.5864 23.838 34.4085C23.9129 34.2305 24.0226 34.0693 24.1605 33.9342C24.2986 33.7977 24.4623 33.6899 24.6422 33.617C24.8222 33.5441 25.0148 33.5077 25.2089 33.5097H26.1201L27.8791 35.2131C27.8845 35.2183 27.8903 35.2189 27.8956 35.2242C27.9084 35.2361 27.9213 35.2457 27.9346 35.2566C27.9446 35.2648 27.9547 35.2718 27.965 35.2795C27.9783 35.2897 27.992 35.299 28.0059 35.3082C28.0171 35.3156 28.0282 35.3224 28.0393 35.3292C28.0529 35.3374 28.0666 35.3452 28.0805 35.3527C28.0928 35.3592 28.105 35.3652 28.1175 35.3713C28.1299 35.3773 28.1446 35.3838 28.1586 35.3895C28.1725 35.3952 28.1848 35.4 28.1982 35.4049C28.2116 35.4098 28.2254 35.4143 28.239 35.4185C28.2527 35.4226 28.267 35.4266 28.2811 35.4302C28.2953 35.4337 28.3083 35.4367 28.322 35.4395C28.3357 35.4423 28.3506 35.445 28.3651 35.4472C28.3795 35.4494 28.3928 35.4511 28.4067 35.4525C28.4206 35.454 28.4353 35.4552 28.4496 35.456C28.4638 35.4568 28.4782 35.4573 28.4924 35.4574C28.5067 35.4575 28.5205 35.4574 28.5345 35.4568C28.5485 35.4561 28.5636 35.4553 28.5782 35.4541C28.5927 35.4529 28.6054 35.4513 28.619 35.4495C28.6326 35.4477 28.6486 35.4452 28.6635 35.4425C28.6785 35.4398 28.6898 35.4372 28.703 35.4342C28.7179 35.4307 28.7326 35.4269 28.7475 35.423C28.7604 35.4194 28.7731 35.4152 28.7859 35.411C28.7987 35.4068 28.8148 35.4009 28.8291 35.3952C28.8433 35.3895 28.8542 35.3847 28.8667 35.3792C28.8792 35.3736 28.8944 35.3663 28.9081 35.3592C28.9218 35.3522 28.9327 35.3461 28.9449 35.3391C28.957 35.3321 28.9713 35.3235 28.9841 35.3152C28.9969 35.3068 29.0078 35.2993 29.0193 35.291C29.0309 35.2826 29.0445 35.2725 29.0568 35.2626C29.069 35.2527 29.0785 35.2447 29.089 35.2352C29.0961 35.2292 29.1033 35.2313 29.1101 35.225L30.9443 33.5097H31.7914C31.8408 33.5097 31.8907 33.5048 31.9399 33.5097C32.1339 33.5281 32.3223 33.5845 32.4944 33.6757C32.6665 33.767 32.8189 33.8913 32.9429 34.0416C33.067 34.1902 33.1604 34.3621 33.2176 34.5472C33.2748 34.7323 33.2946 34.9269 33.276 35.1197ZM50.854 31.7377C50.7448 31.7291 50.6352 31.726 50.5257 31.7285H49.326C49.2939 31.7262 49.2617 31.7256 49.2295 31.7266C49.5724 31.4282 49.8472 31.0598 50.0354 30.6461C50.2236 30.2324 50.3208 29.7832 50.3205 29.3287V28.4176C50.3205 27.5761 49.9863 26.7691 49.3912 26.1741C48.7962 25.579 47.9892 25.2447 47.1477 25.2447C46.3062 25.2447 45.4992 25.579 44.9041 26.1741C44.3091 26.7691 43.9748 27.5761 43.9748 28.4176V29.3287C43.9742 29.7841 44.0718 30.2342 44.2611 30.6484C44.4504 31.0626 44.7269 31.431 45.0716 31.7285H43.9429C43.5161 31.7246 43.0929 31.8059 42.698 31.9678C42.3031 32.1297 41.9446 32.3689 41.6434 32.6713C41.3422 32.9736 41.1045 33.3331 40.9442 33.7287C40.7838 34.1242 40.7042 34.5477 40.7098 34.9745C40.7098 35.0676 40.6348 35.158 40.7461 35.251V42.2122C40.7417 42.4888 40.793 42.7636 40.897 43.02C41.0009 43.2765 41.1554 43.5094 41.3511 43.705C41.5469 43.9006 41.78 44.0548 42.0366 44.1585C42.2932 44.2622 42.5679 44.3132 42.8446 44.3086L42.8687 44.3334C43.0244 44.3354 43.1799 44.3199 43.3321 44.2872L43.6262 54.1896C43.64 54.6024 43.7672 55.0034 43.9938 55.3487C44.2205 55.694 44.5377 55.9703 44.9109 56.1472C45.2841 56.3242 45.6988 56.395 46.1096 56.352C46.5204 56.3089 46.9114 56.1537 47.2398 55.9032C47.5679 56.1546 47.959 56.3106 48.3701 56.3541C48.7811 56.3977 49.1962 56.327 49.5698 56.1499C49.9433 55.9728 50.2607 55.6962 50.4872 55.3503C50.7137 55.0045 50.8404 54.603 50.8535 54.1898L51.1473 44.3045C51.4618 44.377 51.7887 44.3775 52.1034 44.306C52.4182 44.2345 52.7127 44.0928 52.9651 43.8915C53.2174 43.6902 53.421 43.4345 53.5606 43.1434C53.7003 42.8524 53.7723 42.5336 53.7715 42.2108V35.2511C53.8828 34.4024 53.5895 33.577 53.0496 32.9154C52.7798 32.5836 52.4467 32.3087 52.0699 32.1065C51.693 31.9044 51.2797 31.779 50.854 31.7377ZM45.7559 28.4176C45.7572 28.2364 45.7943 28.0572 45.8651 27.8903C45.9359 27.7235 46.039 27.5723 46.1684 27.4454C46.2979 27.3186 46.4512 27.2186 46.6194 27.1512C46.7877 27.0838 46.9676 27.0503 47.1488 27.0527H47.1504C47.3314 27.0504 47.511 27.0839 47.679 27.1514C47.847 27.2189 48 27.3189 48.1291 27.4458C48.2582 27.5727 48.3609 27.7239 48.4312 27.8907C48.5016 28.0575 48.5383 28.2366 48.5391 28.4176V29.3287C48.5391 29.6978 48.3924 30.0517 48.1315 30.3127C47.8705 30.5737 47.5165 30.7203 47.1475 30.7203C46.7784 30.7203 46.4244 30.5737 46.1635 30.3127C45.9025 30.0517 45.7559 29.6978 45.7559 29.3287V28.4176ZM47.1545 32.4973C47.5902 32.4976 48.0213 32.4075 48.4205 32.2327L47.2452 33.3355L46.2465 32.3641C46.541 32.4525 46.8469 32.4974 47.1545 32.4973ZM48.5836 54.5862C48.4567 54.5866 48.3345 54.5377 48.2431 54.4496C48.1517 54.3616 48.0981 54.2414 48.0938 54.1146V43.8235C48.0938 43.5873 47.9999 43.3608 47.8329 43.1937C47.6659 43.0267 47.4393 42.9329 47.2031 42.9329C46.9669 42.9329 46.7404 43.0267 46.5734 43.1937C46.4063 43.3608 46.3125 43.5873 46.3125 43.8235V54.1146C46.3143 54.1746 46.3041 54.2345 46.2828 54.2906C46.2614 54.3468 46.2292 54.3982 46.1879 54.4419C46.1467 54.4856 46.0973 54.5208 46.0424 54.5454C45.9876 54.57 45.9285 54.5835 45.8684 54.5853C45.8083 54.587 45.7485 54.5769 45.6924 54.5555C45.6362 54.5342 45.5848 54.5019 45.5411 54.4607C45.4974 54.4195 45.4622 54.37 45.4376 54.3152C45.413 54.2604 45.3995 54.2012 45.3977 54.1412L45.0618 42.5273H49.4186L49.0642 54.1354C49.0579 54.2581 49.0043 54.3736 48.9147 54.4576C48.8251 54.5417 48.7064 54.5877 48.5836 54.5862ZM51.9941 35.1197C51.9913 35.1496 51.9899 35.1796 51.99 35.2096V42.2108C51.9842 42.3102 51.9406 42.4036 51.8682 42.4719C51.7957 42.5403 51.6999 42.5783 51.6004 42.5783C51.5008 42.5783 51.405 42.5403 51.3326 42.4719C51.2601 42.4036 51.2165 42.3102 51.2107 42.2108V40.6897L51.2176 40.456C51.219 40.4109 51.2107 40.3669 51.2107 40.3232V37.5246C51.2107 37.2884 51.1169 37.0618 50.9499 36.8948C50.7828 36.7278 50.5563 36.6339 50.3201 36.6339C50.0839 36.6339 49.8573 36.7278 49.6903 36.8948C49.5233 37.0618 49.4295 37.2884 49.4295 37.5246V40.6661L49.4715 40.7461H45.0089L44.9911 40.4065C44.9904 40.3769 44.9766 40.3438 44.9766 40.3151V37.5246C44.9766 37.2884 44.8827 37.0618 44.7157 36.8948C44.5487 36.7278 44.3221 36.6339 44.0859 36.6339C43.8497 36.6339 43.6232 36.7278 43.4562 36.8948C43.2891 37.0618 43.1953 37.2884 43.1953 37.5246V42.1764C43.1981 42.222 43.1914 42.2676 43.1756 42.3105C43.1599 42.3533 43.1355 42.3925 43.1039 42.4254C43.0723 42.4584 43.0342 42.4844 42.9921 42.502C42.95 42.5195 42.9046 42.5281 42.859 42.5273H42.845L42.869 42.5524C42.8236 42.5547 42.7783 42.5475 42.7358 42.5312C42.6934 42.5149 42.6549 42.4899 42.6227 42.4578C42.5905 42.4257 42.5654 42.3873 42.549 42.3449C42.5326 42.3025 42.5252 42.2572 42.5273 42.2118V35.2093C42.5273 35.1792 42.5016 35.1492 42.4985 35.1194C42.4935 35.0702 42.4789 35.02 42.4789 34.9706C42.4779 34.7782 42.5151 34.5875 42.5884 34.4096C42.6617 34.2317 42.7695 34.0701 42.9057 33.9342C43.0419 33.7983 43.2038 33.6908 43.3819 33.6179C43.5599 33.5451 43.7507 33.5083 43.9431 33.5097H44.8541L46.6131 35.2131C46.6184 35.2183 46.6242 35.2189 46.6297 35.2242C46.6424 35.2361 46.6554 35.2457 46.6686 35.2567C46.6786 35.2648 46.6887 35.2717 46.6988 35.279C46.7124 35.2892 46.7261 35.2986 46.7401 35.308C46.7512 35.3153 46.7618 35.3218 46.7735 35.3286C46.7873 35.337 46.8012 35.3449 46.8154 35.3524C46.8273 35.3588 46.8394 35.3648 46.8516 35.3706C46.8654 35.3772 46.8792 35.3834 46.8933 35.3892C46.9074 35.395 46.9192 35.3995 46.9323 35.4043C46.9453 35.4091 46.9599 35.4139 46.9739 35.4181C46.9879 35.4224 47.0014 35.4261 47.0153 35.4293C47.0292 35.4324 47.0428 35.4359 47.0567 35.4387C47.0706 35.4415 47.0851 35.4441 47.0994 35.4463C47.1136 35.4485 47.1272 35.4502 47.1412 35.4518C47.1553 35.4533 47.1697 35.4543 47.184 35.4551C47.1982 35.4559 47.2126 35.4564 47.2268 35.4565C47.2411 35.4566 47.2549 35.4565 47.2689 35.4559C47.283 35.4552 47.2981 35.4544 47.3127 35.4532C47.3273 35.452 47.3401 35.4504 47.3536 35.4486C47.3672 35.4468 47.383 35.4443 47.3982 35.4416C47.4133 35.4389 47.4247 35.4363 47.438 35.4333C47.4514 35.4303 47.4673 35.426 47.4819 35.4221C47.4965 35.4182 47.5078 35.4143 47.5206 35.41C47.5334 35.4057 47.5494 35.4 47.5636 35.3943C47.5779 35.3886 47.5889 35.3838 47.6013 35.3782C47.6138 35.3725 47.629 35.3654 47.6425 35.3583C47.6561 35.3513 47.6673 35.3452 47.6795 35.3382C47.6917 35.3312 47.7058 35.3226 47.7186 35.3143C47.7314 35.3059 47.7423 35.2985 47.7539 35.29C47.7654 35.2815 47.779 35.2716 47.7913 35.2617C47.8035 35.2518 47.8135 35.2438 47.8237 35.2343C47.8306 35.2282 47.8378 35.2304 47.8446 35.2241L49.6785 33.5097H50.5257C50.575 33.5097 50.6249 33.5048 50.6742 33.5097C50.8667 33.5284 51.0537 33.585 51.2243 33.676C51.3949 33.7671 51.5459 33.891 51.6686 34.0406C51.7912 34.1902 51.8831 34.3625 51.939 34.5477C51.9949 34.7328 52.0137 34.9272 51.9944 35.1197H51.9941ZM13.3855 31.7377C13.2763 31.7291 13.1667 31.726 13.0571 31.7285H11.8577C11.8257 31.7285 11.7686 31.7233 11.7364 31.7266C12.0759 31.4269 12.3468 31.0576 12.5308 30.6438C12.7148 30.23 12.8075 29.7815 12.8027 29.3287V28.4176C12.8027 28.0082 12.7221 27.6029 12.5655 27.2247C12.4088 26.8465 12.1792 26.5029 11.8897 26.2134C11.6003 25.924 11.2566 25.6943 10.8784 25.5377C10.5002 25.381 10.0949 25.3004 9.68555 25.3004C9.27619 25.3004 8.87085 25.381 8.49265 25.5377C8.11446 25.6943 7.77082 25.924 7.48136 26.2134C7.19191 26.5029 6.9623 26.8465 6.80564 27.2247C6.64899 27.6029 6.56836 28.0082 6.56836 28.4176V29.3287C6.56836 30.279 6.93842 31.1719 7.60371 31.7285H6.4744C6.04717 31.7269 5.62384 31.8097 5.22869 31.9722C4.83354 32.1346 4.47436 32.3735 4.17175 32.6751C3.86914 32.9766 3.62906 33.335 3.46528 33.7296C3.30151 34.1242 3.21726 34.5473 3.21738 34.9745C3.21738 35.0676 3.22907 35.158 3.22907 35.251V42.2122C3.22857 42.4905 3.28406 42.7661 3.39223 43.0226C3.5004 43.2791 3.65905 43.5112 3.85875 43.7052C4.05893 43.9015 4.29621 44.0559 4.55674 44.1595C4.81727 44.2631 5.09583 44.3138 5.37615 44.3086H5.37715L5.4012 44.3334C5.55692 44.3353 5.71238 44.3198 5.86466 44.2872L6.15856 54.1896C6.17242 54.6024 6.29963 55.0034 6.52625 55.3487C6.75287 55.694 7.07015 55.9703 7.44334 56.1472C7.81653 56.3242 8.23123 56.395 8.642 56.352C9.05277 56.3089 9.44377 56.1537 9.77216 55.9032C10.1003 56.1546 10.4914 56.3106 10.9025 56.3541C11.3135 56.3977 11.7286 56.327 12.1022 56.1499C12.4757 55.9728 12.7931 55.6962 13.0196 55.3503C13.2461 55.0045 13.3728 54.603 13.3859 54.1898L13.6797 44.3045C13.8271 44.3403 13.9783 44.3586 14.13 44.3591C14.4107 44.3583 14.6885 44.302 14.9474 44.1934C15.2063 44.0849 15.4412 43.9262 15.6386 43.7266C15.836 43.5269 15.992 43.2902 16.0976 43.0301C16.2031 42.77 16.2563 42.4915 16.2539 42.2108V35.2511C16.3045 34.8348 16.2687 34.4125 16.1487 34.0106C16.0287 33.6087 15.8271 33.2358 15.5565 32.9154C15.2916 32.5841 14.963 32.3093 14.5901 32.107C14.2173 31.9048 13.8077 31.7792 13.3855 31.7377ZM8.34961 28.4176C8.34961 27.6527 8.92061 27.0302 9.68555 27.0302C10.4505 27.0302 11.0215 27.6527 11.0215 28.4176V29.3287C11.0215 30.0936 10.4505 30.7161 9.68555 30.7161C8.92061 30.7161 8.34961 30.0936 8.34961 29.3287V28.4176ZM9.68555 32.4973C10.1213 32.4976 10.5524 32.4075 10.9516 32.2326L9.77628 33.3355L8.77822 32.3642C9.07258 32.4525 9.37824 32.4973 9.68555 32.4973ZM11.1461 54.5862C11.0848 54.5858 11.0243 54.5732 10.968 54.5492C10.9117 54.5252 10.8607 54.4903 10.818 54.4464C10.7754 54.4025 10.7419 54.3506 10.7194 54.2936C10.697 54.2366 10.6862 54.1758 10.6875 54.1146V43.8235C10.6875 43.5873 10.5937 43.3608 10.4266 43.1937C10.2596 43.0267 10.0331 42.9329 9.79688 42.9329C9.56067 42.9329 9.33413 43.0267 9.16711 43.1937C9.00009 43.3608 8.90625 43.5873 8.90625 43.8235V54.1146C8.90328 54.2409 8.85094 54.361 8.76045 54.4491C8.66996 54.5373 8.54853 54.5865 8.4222 54.5862C8.30052 54.588 8.18287 54.5426 8.09388 54.4596C8.0049 54.3766 7.95148 54.2624 7.94482 54.1408L7.59336 42.5273H11.9504L11.6115 54.1354C11.6088 54.2566 11.5585 54.3718 11.4714 54.4561C11.3844 54.5405 11.2677 54.5872 11.1465 54.5862H11.1461ZM14.5009 35.1197C14.4978 35.1495 14.4722 35.1796 14.4722 35.2096V42.2108C14.4765 42.2573 14.4711 42.3042 14.4563 42.3484C14.4415 42.3927 14.4176 42.4334 14.3862 42.4679C14.3547 42.5024 14.3165 42.5299 14.2738 42.5488C14.2311 42.5676 14.1849 42.5774 14.1382 42.5774C14.0916 42.5774 14.0454 42.5676 14.0027 42.5488C13.96 42.5299 13.9217 42.5024 13.8903 42.4679C13.8588 42.4334 13.835 42.3927 13.8201 42.3484C13.8053 42.3042 13.7999 42.2573 13.8042 42.2108V40.6897L13.8111 40.456C13.8125 40.4109 13.8042 40.3669 13.8042 40.3232V37.5246C13.8042 37.2884 13.7104 37.0618 13.5434 36.8948C13.3764 36.7278 13.1498 36.6339 12.9136 36.6339C12.6774 36.6339 12.4509 36.7278 12.2839 36.8948C12.1168 37.0618 12.023 37.2884 12.023 37.5246V40.6661L12.0028 40.7461H7.54037L7.55384 40.4065C7.55295 40.3769 7.57031 40.3438 7.57031 40.3151V37.5246C7.57031 37.2884 7.47648 37.0618 7.30946 36.8948C7.14243 36.7278 6.9159 36.6339 6.67969 36.6339C6.44348 36.6339 6.21695 36.7278 6.04992 36.8948C5.8829 37.0618 5.78906 37.2884 5.78906 37.5246V42.1764C5.78906 42.3915 5.57654 42.5273 5.39062 42.5273H5.37648V42.5524C5.32979 42.5552 5.28301 42.5485 5.23898 42.5327C5.19494 42.5169 5.15457 42.4924 5.12029 42.4605C5.08601 42.4287 5.05854 42.3902 5.03955 42.3475C5.02055 42.3047 5.01042 42.2586 5.00977 42.2118V35.2093C5.00987 35.1793 5.00845 35.1493 5.00554 35.1194C5.00059 35.07 4.99813 35.0203 4.99819 34.9706C4.99855 34.7775 5.0371 34.5865 5.11162 34.4084C5.18613 34.2303 5.29515 34.0687 5.43238 33.9329C5.56961 33.7971 5.73235 33.6898 5.91123 33.6172C6.0901 33.5446 6.28158 33.5081 6.47462 33.5097H7.38596L9.14494 35.2131C9.15017 35.2183 9.15607 35.2189 9.16142 35.2242C9.17411 35.2361 9.18713 35.2457 9.20049 35.2567C9.21029 35.2648 9.22042 35.2717 9.23055 35.279C9.24413 35.2892 9.25783 35.2986 9.27185 35.308C9.28299 35.3153 9.29412 35.3218 9.30525 35.3286C9.31906 35.337 9.33297 35.3449 9.34711 35.3524C9.35913 35.3588 9.37116 35.3648 9.38329 35.3706C9.39543 35.3764 9.4109 35.3834 9.42504 35.3892C9.43918 35.395 9.45109 35.3995 9.46412 35.4043C9.47714 35.4091 9.49162 35.4139 9.50564 35.4181C9.51967 35.4224 9.53314 35.4261 9.54706 35.4293C9.56097 35.4324 9.57455 35.4359 9.58847 35.4387C9.60239 35.4415 9.61686 35.4441 9.63122 35.4463C9.64558 35.4485 9.65905 35.4502 9.67308 35.4518C9.68711 35.4533 9.70158 35.4543 9.71583 35.4551C9.73008 35.4559 9.74433 35.4564 9.75858 35.4565C9.77283 35.4566 9.78663 35.4565 9.80066 35.4559C9.81469 35.4552 9.82983 35.4544 9.84441 35.4532C9.859 35.452 9.8718 35.4504 9.88538 35.4486C9.89896 35.4468 9.91488 35.4443 9.92991 35.4416C9.94494 35.4389 9.95641 35.4363 9.96966 35.4333C9.98291 35.4303 9.99905 35.426 10.0136 35.4221C10.0282 35.4182 10.0395 35.4143 10.0523 35.41C10.0651 35.4057 10.081 35.4 10.0952 35.3943C10.1095 35.3886 10.1205 35.3838 10.1331 35.3782C10.1457 35.3725 10.1607 35.3654 10.1743 35.3583C10.1879 35.3513 10.199 35.3452 10.2111 35.3382C10.2233 35.3312 10.2374 35.3226 10.2502 35.3143C10.263 35.3059 10.2739 35.2985 10.2856 35.29C10.2973 35.2815 10.3107 35.2716 10.323 35.2617C10.3354 35.2518 10.3453 35.2438 10.3554 35.2343C10.3622 35.2282 10.3695 35.2304 10.3762 35.2241L12.2101 33.5097H13.0571C13.1066 33.5097 13.1565 33.5048 13.2057 33.5097C13.397 33.5291 13.5826 33.5863 13.7516 33.6779C13.9206 33.7696 14.0697 33.8939 14.1903 34.0437C14.3108 34.1935 14.4004 34.3658 14.4538 34.5505C14.5072 34.7352 14.5234 34.9286 14.5014 35.1197H14.5009ZM33.3444 8.11881C32.6394 7.46186 31.808 6.95528 30.9009 6.62991C29.9938 6.30455 29.0299 6.1672 28.068 6.22623C24.434 6.43975 21.6012 9.36624 21.5888 12.8887C21.5863 14.0988 21.9186 15.2861 22.5489 16.3191C23.1792 17.3522 24.0829 18.1908 25.1602 18.7422V22.8845C25.1602 23.3763 25.5107 23.8242 26.0026 23.8242H30.9973C31.4892 23.8242 31.8398 23.3763 31.8398 22.8845V18.7573C34.0664 17.5699 35.4115 15.3338 35.4115 12.9126C35.4161 12.0142 35.2348 11.1246 34.8791 10.2996C34.5234 9.47463 34.0009 8.73214 33.3444 8.11881ZM26.9414 22.0429V20.2617H30.0586V22.0429H26.9414ZM30.6128 17.3901C30.4522 17.4586 30.3147 17.5718 30.2164 17.7161C30.1182 17.8605 30.0634 18.0299 30.0586 18.2045V18.4804H26.9414V18.1821C26.9366 18.0055 26.8806 17.8342 26.7803 17.6888C26.68 17.5435 26.5397 17.4303 26.3764 17.363C24.5432 16.5801 23.3509 14.8262 23.3578 12.8947C23.3669 10.3535 25.5262 8.16033 28.1787 8.00447C28.8979 7.9591 29.6187 8.06077 30.2973 8.30329C30.9759 8.54581 31.5979 8.92407 32.1254 9.415C32.6057 9.86185 32.9885 10.4032 33.2497 11.0049C33.5109 11.6067 33.645 12.256 33.6434 12.912C33.6434 14.821 32.4458 16.5787 30.6128 17.3901Z" fill="#565656"></path><path d="M29.3906 4.4922V1.52319C29.3906 1.28698 29.2968 1.06045 29.1298 0.893426C28.9627 0.726402 28.7362 0.632568 28.5 0.632568C28.2638 0.632568 28.0373 0.726402 27.8702 0.893426C27.7032 1.06045 27.6094 1.28698 27.6094 1.52319V4.4922C27.6094 4.72841 27.7032 4.95495 27.8702 5.12197C28.0373 5.28899 28.2638 5.38283 28.5 5.38283C28.7362 5.38283 28.9627 5.28899 29.1298 5.12197C29.2968 4.95495 29.3906 4.72841 29.3906 4.4922ZM20.046 11.6895H16.9561C16.7198 11.6895 16.4933 11.7833 16.3263 11.9503C16.1593 12.1173 16.0654 12.3439 16.0654 12.5801C16.0654 12.8163 16.1593 13.0428 16.3263 13.2098C16.4933 13.3769 16.7198 13.4707 16.9561 13.4707H20.046C20.2822 13.4707 20.5087 13.3769 20.6757 13.2098C20.8428 13.0428 20.9366 12.8163 20.9366 12.5801C20.9366 12.3439 20.8428 12.1173 20.6757 11.9503C20.5087 11.7833 20.2822 11.6895 20.046 11.6895ZM40.0439 11.6895H36.954C36.7178 11.6895 36.4913 11.7833 36.3243 11.9503C36.1572 12.1173 36.0634 12.3439 36.0634 12.5801C36.0634 12.8163 36.1572 13.0428 36.3243 13.2098C36.4913 13.3769 36.7178 13.4707 36.954 13.4707H40.0439C40.2802 13.4707 40.5067 13.3769 40.6737 13.2098C40.8407 13.0428 40.9346 12.8163 40.9346 12.5801C40.9346 12.3439 40.8407 12.1173 40.6737 11.9503C40.5067 11.7833 40.2802 11.6895 40.0439 11.6895ZM22.5425 7.75801C22.7206 7.75808 22.8947 7.70474 23.0422 7.60487C23.1897 7.50501 23.3038 7.36321 23.3699 7.1978C23.436 7.03239 23.4509 6.85096 23.4129 6.67696C23.3748 6.50295 23.2854 6.34437 23.1563 6.22169L20.956 4.1315C20.7843 3.97137 20.5563 3.88552 20.3216 3.89263C20.0869 3.89973 19.8645 3.99922 19.7028 4.16945C19.5411 4.33968 19.4532 4.56688 19.4581 4.80162C19.4631 5.03636 19.5605 5.25964 19.7292 5.42291L21.9293 7.51298C22.0945 7.67054 22.3142 7.7583 22.5425 7.75801ZM34.4575 7.75801C34.6858 7.75833 34.9054 7.67061 35.0707 7.51309L37.2708 5.42302C37.4395 5.25976 37.5369 5.03647 37.5419 4.80173C37.5468 4.56699 37.4589 4.3398 37.2972 4.16957C37.1355 3.99934 36.9131 3.89985 36.6784 3.89274C36.4437 3.88563 36.2157 3.97148 36.044 4.13161L33.8438 6.22169C33.7146 6.34435 33.6252 6.50292 33.5872 6.6769C33.5491 6.85088 33.564 7.03229 33.6301 7.19769C33.6961 7.3631 33.8102 7.5049 33.9577 7.60478C34.1052 7.70466 34.2792 7.75804 34.4573 7.75801H34.4575Z" fill="#565656"></path></svg>