<svg xmlns="http://www.w3.org/2000/svg" viewBox="0 0 50.58 55.73"><g id="Layer_2" data-name="Layer 2"><g id="Layer_1-2" data-name="Layer 1"><path d="M28.9,31.11a1.82,1.82,0,0,0-.33,0H27.29A3.15,3.15,0,0,0,28.4,28.7v-.91a3.18,3.18,0,1,0-6.35,0v.91a3.13,3.13,0,0,0,1.07,2.4H22a3.26,3.26,0,0,0-3.27,3.24v7.24a2.06,2.06,0,0,0,.64,1.49,2.14,2.14,0,0,0,1.53.61h0l0,0a1.75,1.75,0,0,0,.46-.05l.3,9.91A2.25,2.25,0,0,0,24,55.73a2.3,2.3,0,0,0,1.29-.46,2.24,2.24,0,0,0,3.15-.42,2.16,2.16,0,0,0,.46-1.29l.3-9.89a2.17,2.17,0,0,0,2.6-1.62,2.42,2.42,0,0,0,.05-.47v-7a3.67,3.67,0,0,0-.73-2.34A3.33,3.33,0,0,0,28.9,31.1Zm-5.06-3.32a1.35,1.35,0,0,1,1.36-1.37h0a1.38,1.38,0,0,1,1.4,1.36h0v.91a1.39,1.39,0,0,1-2.78,0Zm1.36,4.08a3.08,3.08,0,0,0,1.27-.27l-1.18,1.1-1-1a3.06,3.06,0,0,0,.9.13ZM26.65,54a.48.48,0,0,1-.48-.47V43.19a.89.89,0,0,0-1.78,0V53.48a.46.46,0,0,1-.46.47h0a.46.46,0,0,1-.47-.44l-.34-11.62h4.36L27.12,53.5A.46.46,0,0,1,26.65,54Zm3.41-19.46s0,.06,0,.09v7a.4.4,0,0,1-.39.39.39.39,0,0,1-.39-.39V39.82s0-.09,0-.13v-2.8a.89.89,0,0,0-1.78,0v3.22H23.06V36.89a.89.89,0,0,0-1.78,0h0v4.65a.36.36,0,0,1-.36.35h0v0a.36.36,0,0,1-.38-.34h0v-7s0-.06,0-.09a.38.38,0,0,1,0-.15,1.44,1.44,0,0,1,.43-1,1.47,1.47,0,0,1,1-.42h.91l1.76,1.7h0l0,0,0,0,.11.07.12.05a.76.76,0,0,0,.3,0,.5.5,0,0,0,.17,0h.12l0,0h0a.86.86,0,0,0,.22-.15h0l1.84-1.71h.84a.75.75,0,0,1,.15,0A1.47,1.47,0,0,1,30.06,34.49ZM47.64,31.1H46A3.13,3.13,0,0,0,47.1,28.7v-.92a3.17,3.17,0,0,0-6.34,0v.91a3.15,3.15,0,0,0,1.1,2.4H40.73a3.22,3.22,0,0,0-3.24,3.18v.07c0,.1-.07.18,0,.28v7a2.07,2.07,0,0,0,2,2.1h.07l0,0a1.88,1.88,0,0,0,.47-.05l.29,9.91a2.25,2.25,0,0,0,2.32,2.17A2.3,2.3,0,0,0,44,55.27a2.26,2.26,0,0,0,3.62-1.71l.29-9.89a2.14,2.14,0,0,0,2.57-1.61,1.54,1.54,0,0,0,0-.48v-7a3.08,3.08,0,0,0-.72-2.34A3.24,3.24,0,0,0,47.64,31.1Zm-5.1-3.32a1.38,1.38,0,0,1,1.39-1.36h0a1.37,1.37,0,0,1,1.39,1.35h0v.91a1.39,1.39,0,1,1-2.78,0Zm1.4,4.09a3.07,3.07,0,0,0,1.26-.27L44,32.7l-1-1a3.08,3.08,0,0,0,.91.13ZM45.37,54a.48.48,0,0,1-.49-.47V43.19a.89.89,0,0,0-1.78,0V53.48a.47.47,0,0,1-.45.47.46.46,0,0,1-.47-.44h0l-.33-11.62H46.2L45.85,53.5A.47.47,0,0,1,45.37,54Zm3.41-19.46a.28.28,0,0,0,0,.09v7a.39.39,0,0,1-.39.39.4.4,0,0,1-.39-.39V39.82s0-.09,0-.13v-2.8a.89.89,0,0,0-1.78,0V40l0,.08H41.79v-.34s0-.06,0-.09V36.89a.89.89,0,0,0-1.78,0v4.65a.33.33,0,0,1-.31.35h0l0,0a.32.32,0,0,1-.34-.31v-7a.32.32,0,0,0,0-.09c0-.05,0-.1,0-.15a1.45,1.45,0,0,1,1.45-1.46h.93l1.76,1.7a0,0,0,0,0,0,0l0,0,0,0a.9.9,0,0,0,.24.12l.08,0h0a1.51,1.51,0,0,0,.3,0h.16a.9.9,0,0,0,.24-.12l0,0,0,0h0l1.83-1.71h.85a.75.75,0,0,1,.15,0,1.47,1.47,0,0,1,1.32,1.6ZM10.17,31.1H8.52A3.13,3.13,0,0,0,9.59,28.7v-.92a3.12,3.12,0,0,0-6.24-.11v1a3.08,3.08,0,0,0,1,2.4H3.26A3.25,3.25,0,0,0,0,34.32v0c0,.1,0,.18,0,.28v7a2.09,2.09,0,0,0,.63,1.49,2.11,2.11,0,0,0,1.52.61h0l0,0a1.83,1.83,0,0,0,.47-.05l.29,9.91a2.25,2.25,0,0,0,2.33,2.17,2.35,2.35,0,0,0,1.29-.46,2.25,2.25,0,0,0,3.15-.41,2.36,2.36,0,0,0,.46-1.3l.29-9.89a1.74,1.74,0,0,0,.45.06A2.14,2.14,0,0,0,13,41.59h0v-7a3.06,3.06,0,0,0-.7-2.34A3.22,3.22,0,0,0,10.17,31.1Zm-5-3.32a1.34,1.34,0,1,1,2.67,0v.91a1.34,1.34,0,1,1-2.67,0v-.91Zm1.34,4.09a3.12,3.12,0,0,0,1.27-.27L6.56,32.7l-1-1a3.13,3.13,0,0,0,.91.13ZM7.93,54a.46.46,0,0,1-.46-.46h0V43.19a.89.89,0,0,0-1.78,0h0V53.48a.48.48,0,0,1-.48.47.46.46,0,0,1-.48-.44L4.38,41.89H8.73L8.4,53.5A.47.47,0,0,1,7.93,54Zm3.35-19.46s0,.06,0,.09v7A.34.34,0,0,1,11,42a.34.34,0,0,1-.37-.3.09.09,0,0,1,0-.07V39.82a.57.57,0,0,0,0-.13v-2.8a.89.89,0,1,0-1.78,0V40l0,.08H4.32l0-.34s0-.06,0-.09V36.89a.89.89,0,0,0-1.78,0h0v4.65a.38.38,0,0,1-.4.35h0v0a.35.35,0,0,1-.37-.33h0V34.49a1.42,1.42,0,0,1,.11-.71,1.44,1.44,0,0,1,1.36-.9h.91l1.76,1.7a0,0,0,0,0,0,0l0,0,0,0,0,0,0,0a.87.87,0,0,0,.24.1h0a1,1,0,0,0,.3,0h.17a1,1,0,0,0,.23-.12l.07-.06h0L9,32.88h.85a.75.75,0,0,1,.15,0,1.45,1.45,0,0,1,1.3,1.59Zm18.85-27a7.12,7.12,0,0,0-5.28-1.9,6.8,6.8,0,0,0-6.48,6.67,6.58,6.58,0,0,0,3.57,5.85v4.14a.9.9,0,0,0,.85.94h5a.9.9,0,0,0,.84-.94V18.12a6.6,6.6,0,0,0,3.57-5.84A6.52,6.52,0,0,0,30.13,7.49ZM23.72,21.41V19.63h3.12v1.78Zm3.68-4.65a.91.91,0,0,0-.56.81v.28H23.72v-.3a.92.92,0,0,0-.56-.82,4.88,4.88,0,0,1-3-4.47A5.09,5.09,0,0,1,25,7.37a5.34,5.34,0,0,1,3.95,1.41,4.79,4.79,0,0,1,1.52,3.5,5,5,0,0,1-3,4.48ZM26.17,3.86v-3a.89.89,0,0,0-1.78,0v3a.89.89,0,0,0,1.78,0Zm-9.34,7.2H13.74a.89.89,0,0,0,0,1.78h3.09a.89.89,0,0,0,0-1.78Zm20,0H33.74a.89.89,0,1,0,0,1.78h3.09a.89.89,0,1,0,0-1.78ZM19.33,7.13a.89.89,0,0,0,.61-1.54L17.74,3.5a.89.89,0,0,0-1.26,0,.9.9,0,0,0,0,1.26l2.2,2.09A.9.9,0,0,0,19.33,7.13Zm11.91,0a.86.86,0,0,0,.61-.25l2.2-2.09A.89.89,0,0,0,32.83,3.5l-2.2,2.09a.9.9,0,0,0,0,1.26.94.94,0,0,0,.65.28Z"></path></g></g></svg>