<svg xmlns="http://www.w3.org/2000/svg" width="57" height="57" viewBox="0 0 57 57" fill="none"><g clip-path="url(#clip0_37_315)"><path d="M56.9513 22.047C56.973 21.9828 56.9893 21.9168 57 21.8499C57 21.838 57 21.8273 57 21.8155C57.003 21.6728 56.98 21.5308 56.9323 21.3963C56.9323 21.3868 56.9323 21.3749 56.9252 21.3642C56.868 21.2064 56.7777 21.0627 56.6604 20.9426L46.9063 11.1624L45.1773 9.42628H45.1701L43.8069 8.05353L49.8133 2.02696C50.0359 1.80335 50.1606 1.50045 50.16 1.18488C50.1593 0.869317 50.0333 0.566942 49.8097 0.344276C49.699 0.234023 49.5676 0.146658 49.4231 0.0871684C49.2787 0.027679 49.1239 -0.00276954 48.9676 -0.00243874C48.6521 -0.00177064 48.3497 0.124228 48.127 0.347839L41.2846 7.21396C41.062 7.43665 40.937 7.73864 40.937 8.05353C40.937 8.36841 41.062 8.6704 41.2846 8.89309L42.5968 10.2124L39.1804 13.2227H34.0385C32.7315 13.2221 31.4698 13.7013 30.4926 14.5693L18.4276 25.2568C18.2073 25.4509 18.0666 25.7197 18.0329 26.0114C17.9991 26.3031 18.0746 26.5969 18.2448 26.8362C18.3635 27.012 21.3323 31.1112 25.2106 30.1838C27.8861 29.5401 31.0104 26.7709 32.3511 25.4848C34.5218 26.5336 36.9712 26.8598 39.3407 26.4158C43.8639 25.5846 44.9374 23.7167 45.106 23.3485C45.2408 23.0594 45.2567 22.729 45.1503 22.4283C45.0439 22.1276 44.8238 21.8807 44.5372 21.7407C44.3984 21.6731 44.2476 21.6338 44.0934 21.6252C43.9393 21.6166 43.785 21.6387 43.6396 21.6903C43.4941 21.7419 43.3604 21.822 43.2462 21.9259C43.132 22.0297 43.0396 22.1553 42.9744 22.2952C42.9673 22.3071 42.2275 23.472 38.9144 24.0765C36.8295 24.4947 34.6635 24.1235 32.8368 23.035C32.6042 22.8708 32.3204 22.7955 32.0371 22.823C31.7537 22.8505 31.4897 22.9788 31.293 23.1847C30.2243 24.3021 26.9515 27.3195 24.6549 27.8729C23.1432 28.2292 21.698 27.0975 20.8798 26.2626L32.0708 16.3447C32.6131 15.8631 33.3133 15.5973 34.0385 15.5977H39.6293C39.9187 15.5979 40.1983 15.4923 40.4154 15.3008L44.2807 11.8963L44.9932 12.6088L54.055 21.7122L50.3013 24.8377C50.1447 24.9679 50.0241 25.1363 49.9513 25.3266C49.8785 25.5168 49.8559 25.7227 49.8857 25.9242C50.0876 27.3076 50.3132 31.5815 48.7504 33.0183C47.0963 34.5383 45.1381 36.5642 44.0432 37.7185L33.6846 27.3255C33.5744 27.2147 33.4434 27.1268 33.2992 27.0667C33.1549 27.0066 33.0003 26.9755 32.844 26.9752C32.5285 26.9745 32.2256 27.0992 32.0019 27.3219C31.7783 27.5446 31.6523 27.8469 31.6517 28.1625C31.651 28.4781 31.7757 28.781 31.9984 29.0046L43.2571 40.3001L44.061 41.1052C44.3544 41.4012 44.519 41.8011 44.519 42.2179C44.519 42.6347 44.3544 43.0346 44.061 43.3306C43.7746 43.621 43.3849 43.7862 42.9771 43.7902C42.5692 43.7942 42.1764 43.6367 41.8843 43.352L34.1858 35.6332C33.9631 35.4096 33.6607 35.2836 33.3452 35.2829C33.0296 35.2823 32.7267 35.407 32.5031 35.6297C32.2795 35.8523 32.1535 36.1547 32.1528 36.4703C32.1521 36.7858 32.2768 37.0887 32.4995 37.3123L40.2183 45.0513C40.7424 45.5114 41.0775 46.1494 41.1588 46.842C41.1444 46.9954 41.0961 47.1437 41.0175 47.2761C40.9388 47.4086 40.8317 47.5219 40.7039 47.608C40.3216 47.925 39.4309 48.6767 38 47.2517L31.1612 40.3903C31.0509 40.2796 30.92 40.1917 30.7757 40.1316C30.6315 40.0715 30.4768 40.0404 30.3206 40.0401C30.1643 40.0397 30.0096 40.0702 29.8651 40.1297C29.7206 40.1892 29.5892 40.2765 29.4785 40.3868C29.3678 40.497 29.2799 40.628 29.2198 40.7722C29.1597 40.9165 29.1286 41.0711 29.1282 41.2274C29.1279 41.3836 29.1583 41.5384 29.2178 41.6829C29.2773 41.8274 29.3647 41.9587 29.4749 42.0695L36.2995 48.9249C36.584 49.2221 36.7416 49.6184 36.739 50.0298C36.7363 50.4412 36.5736 50.8354 36.2853 51.1289C36.1414 51.2741 35.9701 51.3893 35.7813 51.4678C35.5925 51.5463 35.3901 51.5865 35.1856 51.5861C34.9817 51.587 34.7797 51.5474 34.5912 51.4698C34.4026 51.3921 34.2313 51.2779 34.0872 51.1337L33.212 50.2561C33.1847 50.2288 33.1491 50.2193 33.1206 50.1955C33.0793 49.3538 32.765 48.5484 32.2253 47.9012C31.6856 47.2539 30.9498 46.8 30.1293 46.6081C30.3387 45.9266 30.3597 45.201 30.1899 44.5085C30.0201 43.816 29.666 43.1824 29.165 42.6751C28.7624 42.2782 28.2752 41.9774 27.74 41.7952C28.3166 41.0374 28.6001 40.0968 28.5384 39.1466C28.4767 38.1963 28.0738 37.3004 27.4039 36.6236C26.7171 35.9708 25.8226 35.5804 24.8769 35.5207C23.9312 35.461 22.9947 35.7358 22.2312 36.297C22.0372 35.7767 21.7348 35.3035 21.3441 34.9088C20.5928 34.1902 19.5932 33.7892 18.5535 33.7892C17.5138 33.7892 16.5142 34.1902 15.7629 34.9088L12.9604 37.722C12.0709 36.772 10.0926 34.6975 8.26501 33.0195C6.70226 31.5874 6.92788 27.3124 7.12501 25.9278C7.15462 25.7261 7.13183 25.5202 7.05883 25.3299C6.98583 25.1396 6.86508 24.9713 6.7082 24.8412L2.95926 21.7157L12.7264 11.8939L16.5977 15.3044C16.8148 15.4959 17.0944 15.6014 17.3838 15.6013H22.9758C23.7292 15.6071 24.4536 15.8923 25.0088 16.4017L25.2783 16.6083C25.5281 16.8005 25.844 16.8857 26.1565 16.8451C26.4691 16.8044 26.7527 16.6413 26.945 16.3916C27.1373 16.1418 27.2224 15.8259 27.1818 15.5133C27.1412 15.2008 26.978 14.9172 26.7283 14.7249L26.5216 14.5705C25.5441 13.7032 24.2826 13.2241 22.9758 13.2239H17.8327L14.4091 10.2077L15.7154 8.9014C15.938 8.67871 16.0631 8.37672 16.0631 8.06184C16.0631 7.74696 15.938 7.44496 15.7154 7.22228L8.87301 0.347839C8.65034 0.124228 8.34797 -0.00177064 8.0324 -0.00243874C7.71684 -0.00310683 7.41393 0.12161 7.19032 0.344276C6.96671 0.566942 6.84071 0.869317 6.84004 1.18488C6.83938 1.50045 6.96409 1.80335 7.18676 2.02696L13.1931 8.05353L0.344384 20.9462C0.172234 21.121 0.058802 21.345 0.019856 21.5872C-0.0190899 21.8294 0.0183848 22.0777 0.127071 22.2976C0.15307 22.3422 0.182031 22.3851 0.213759 22.4258C0.251074 22.4981 0.296062 22.5662 0.347946 22.6289C0.363384 22.6443 0.384759 22.6491 0.401384 22.6645C0.418009 22.68 0.423946 22.699 0.439384 22.712L4.6942 26.2543C4.51607 28.0427 4.32013 32.6253 6.65476 34.7723C8.43601 36.4134 10.4381 38.5129 11.286 39.4107L11.2599 39.438C10.5234 40.18 10.1101 41.1831 10.1101 42.2286C10.1101 43.2741 10.5234 44.2772 11.2599 45.0192C11.9836 45.7469 12.9648 46.1603 13.9911 46.1699C13.9974 47.2036 14.4107 48.1933 15.1415 48.9243C15.8724 49.6554 16.8619 50.069 17.8956 50.0756C17.9029 51.1057 18.3139 52.0919 19.0404 52.8223C19.5978 53.3853 20.3128 53.7661 21.091 53.9145C21.8693 54.0628 22.6742 53.9719 23.3997 53.6535C23.5798 54.2716 23.9103 54.8355 24.3616 55.2947C24.7259 55.6628 25.1599 55.9549 25.6381 56.1539C26.1164 56.3528 26.6294 56.4547 27.1474 56.4537C27.505 56.4481 27.8602 56.3937 28.2031 56.2921C28.9078 56.7574 29.7337 57.0052 30.5781 57.0047C31.094 57.0133 31.6064 56.9193 32.0856 56.7283C32.5649 56.5373 33.0014 56.253 33.3699 55.892C33.9111 55.3478 34.27 54.6491 34.3971 53.8922C34.6563 53.9447 34.92 53.971 35.1844 53.9706C36.1567 53.9699 37.0942 53.6085 37.8153 52.9563C38.5364 52.3041 38.9898 51.4075 39.0878 50.4402C39.6519 50.5049 40.2233 50.4486 40.7639 50.2749C41.3045 50.1013 41.8019 49.8143 42.2228 49.4331C42.6014 49.1368 42.9135 48.764 43.1385 48.339C43.3636 47.9141 43.4966 47.4465 43.529 46.9667C43.5424 46.6882 43.522 46.4091 43.4684 46.1355C44.3298 46.0271 45.1304 45.6348 45.7437 45.0204C46.4799 44.2782 46.893 43.2752 46.893 42.2298C46.893 41.1844 46.4799 40.1814 45.7437 39.4392L45.7211 39.4166C46.7899 38.2908 48.7493 36.259 50.3524 34.7853C52.6882 32.6383 52.4899 28.0558 52.3141 26.2674L56.5689 22.7251C56.5903 22.7073 56.5998 22.6788 56.6212 22.6598C56.6426 22.6408 56.639 22.6491 56.6473 22.642C56.6717 22.6098 56.6939 22.5761 56.7138 22.541C56.784 22.4619 56.8432 22.3736 56.8896 22.2786C56.9179 22.2037 56.9386 22.1261 56.9513 22.047ZM12.9438 41.1183L17.4563 36.5903C17.7535 36.3058 18.1491 36.147 18.5606 36.147C18.9721 36.147 19.3677 36.3058 19.665 36.5903C19.9512 36.8802 20.1138 37.2697 20.1187 37.677C20.1235 38.0842 19.9703 38.4775 19.6911 38.7742L15.1323 43.3437L15.1157 43.3638C14.8153 43.6374 14.4201 43.7831 14.014 43.7702C13.6079 43.7574 13.2228 43.5868 12.9403 43.2948C12.6578 43.0027 12.5002 42.6121 12.5009 42.2058C12.5015 41.7995 12.6604 41.4094 12.9438 41.1183ZM16.8209 47.2446C16.5324 46.9531 16.369 46.5605 16.3657 46.1504C16.3624 45.7402 16.5193 45.345 16.8031 45.0489C16.8138 45.0394 16.8257 45.0323 16.8352 45.0228L21.3477 40.496C21.3714 40.4711 21.3869 40.4426 21.4106 40.4176L23.5125 38.3051C23.657 38.1595 23.8289 38.044 24.0182 37.9652C24.2075 37.8863 24.4106 37.8458 24.6157 37.8458C24.8208 37.8458 25.0239 37.8863 25.2132 37.9652C25.4025 38.044 25.5744 38.1595 25.7189 38.3051C26.0123 38.6011 26.1769 39.001 26.1769 39.4178C26.1769 39.8346 26.0123 40.2345 25.7189 40.5305L19.0238 47.2458C18.8793 47.3913 18.7074 47.5069 18.5181 47.5857C18.3287 47.6645 18.1257 47.7051 17.9206 47.7051C17.7155 47.7051 17.5124 47.6645 17.3231 47.5857C17.1337 47.5069 16.9619 47.3913 16.8174 47.2458L16.8209 47.2446ZM20.7254 51.1479C20.4323 50.8517 20.2679 50.4519 20.2679 50.0352C20.2679 49.6185 20.4323 49.2187 20.7254 48.9225L25.2783 44.3578C25.4244 44.213 25.5976 44.0984 25.7881 44.0205C25.9785 43.9427 26.1823 43.9031 26.3881 43.904C26.5938 43.905 26.7973 43.9464 26.987 44.026C27.1766 44.1056 27.3488 44.2217 27.4936 44.3679C27.6384 44.514 27.753 44.6872 27.8308 44.8776C27.9087 45.068 27.9483 45.2719 27.9474 45.4776C27.9464 45.6833 27.905 45.8868 27.8254 46.0765C27.7458 46.2662 27.6296 46.4384 27.4835 46.5832L26.4243 47.646L24.3651 49.7098L24.3521 49.7265L22.9366 51.1515C22.6388 51.4382 22.2413 51.598 21.8279 51.5974C21.4145 51.5967 21.0176 51.4356 20.7207 51.1479H20.7254ZM26.0419 53.6155C25.7511 53.3201 25.5881 52.9221 25.5881 52.5076C25.5881 52.093 25.7511 51.6951 26.0419 51.3997L28.1081 49.3263C28.2523 49.1806 28.424 49.065 28.6131 48.9862C28.8023 48.9073 29.0052 48.8666 29.2101 48.8666C29.4151 48.8666 29.618 48.9073 29.8071 48.9862C29.9963 49.065 30.1679 49.1806 30.3121 49.3263C30.6058 49.6221 30.7706 50.0221 30.7706 50.439C30.7706 50.8558 30.6058 51.2558 30.3121 51.5517L28.2494 53.6155C27.9525 53.9002 27.557 54.0592 27.1457 54.0592C26.7343 54.0592 26.3388 53.9002 26.0419 53.6155ZM31.6861 54.2093C31.3978 54.4576 31.0274 54.5897 30.647 54.5798L31.9901 53.2308C32.0186 53.2035 32.0364 53.1702 32.0625 53.1429C32.08 53.3373 32.0555 53.5331 31.9905 53.7171C31.9256 53.9011 31.8217 54.069 31.6861 54.2093Z" fill="#565656"></path></g><defs><clipPath id="clip0_37_315"><rect width="57" height="57" fill="white"></rect></clipPath></defs></svg>