<svg xmlns="http://www.w3.org/2000/svg" viewBox="0 0 57 57.01"><g id="Layer_2" data-name="Layer 2"><g id="Layer_1-2" data-name="Layer 1"><path d="M57,22.05c0-.06,0-.13,0-.2v0a1.2,1.2,0,0,0-.07-.42,0,0,0,0,0,0,0,1.29,1.29,0,0,0-.26-.42L46.9,11.17,45.17,9.43h0L43.8,8.06l6-6A1.19,1.19,0,1,0,48.12.35L41.28,7.22a1.2,1.2,0,0,0,0,1.68l1.31,1.32-3.41,3H34a5.28,5.28,0,0,0-3.54,1.34L18.42,25.26a1.2,1.2,0,0,0-.18,1.58c.12.18,3.09,4.27,7,3.35,2.67-.65,5.8-3.42,7.14-4.7a11.31,11.31,0,0,0,7,.93c4.52-.83,5.59-2.7,5.76-3.07a1.22,1.22,0,0,0-.57-1.61,1.16,1.16,0,0,0-1.55.54v0s-.75,1.18-4.06,1.78a8.56,8.56,0,0,1-6.08-1,1.18,1.18,0,0,0-1.54.15c-1.07,1.12-4.34,4.13-6.64,4.69-1.51.35-3-.78-3.77-1.61l11.19-9.92a3,3,0,0,1,2-.75h5.59a1.16,1.16,0,0,0,.79-.3l3.87-3.4.71.71,9.06,9.11L50.3,24.84a1.2,1.2,0,0,0-.42,1.09c.2,1.38.43,5.65-1.13,7.09s-3.62,3.55-4.71,4.7L33.68,27.33a1.19,1.19,0,0,0-1.68,0,1.17,1.17,0,0,0-.35.85A1.21,1.21,0,0,0,32,29L43.25,40.3l.81.81a1.58,1.58,0,0,1,0,2.22,1.55,1.55,0,0,1-2.18,0l-7.7-7.72a1.19,1.19,0,0,0-1.68,0,1.2,1.2,0,0,0,0,1.69l7.72,7.73a2.79,2.79,0,0,1,.94,1.8,1,1,0,0,1-.45.76c-.38.32-1.27,1.07-2.7-.35l-6.84-6.87a1.21,1.21,0,0,0-1.69,0,1.2,1.2,0,0,0,0,1.68l6.83,6.86a1.58,1.58,0,0,1,0,2.2,1.53,1.53,0,0,1-1.1.46,1.56,1.56,0,0,1-1.1-.45l-.87-.88s-.07,0-.09-.06a3.9,3.9,0,0,0-3-3.59,3.93,3.93,0,0,0-1-3.93,3.69,3.69,0,0,0-1.42-.88,4,4,0,0,0-.34-5.17,4,4,0,0,0-5.17-.33,4.08,4.08,0,0,0-.89-1.39,4,4,0,0,0-5.58,0L13,37.73c-.89-.95-2.87-3-4.7-4.71-1.56-1.43-1.34-5.7-1.14-7.09a1.2,1.2,0,0,0-.42-1.09L3,21.72l9.76-9.82,3.87,3.41a1.2,1.2,0,0,0,.79.29H23a3.07,3.07,0,0,1,2,.8l.27.21a1.19,1.19,0,0,0,1.45-1.88l-.21-.16A5.38,5.38,0,0,0,23,13.23H17.83l-3.42-3,1.3-1.31a1.2,1.2,0,0,0,0-1.68L8.87.35A1.19,1.19,0,0,0,7.18,2l6,6L.34,21A1.19,1.19,0,0,0,.12,22.3l.09.13a1.37,1.37,0,0,0,.13.2l.06,0,0,0,4.26,3.54c-.18,1.79-.37,6.37,2,8.52,1.78,1.64,3.78,3.74,4.63,4.63l0,0a4,4,0,0,0,0,5.58A3.88,3.88,0,0,0,14,46.17a3.93,3.93,0,0,0,3.9,3.91,3.94,3.94,0,0,0,5.51,3.58,3.88,3.88,0,0,0,3.74,2.8,4.18,4.18,0,0,0,1.06-.16,4.33,4.33,0,0,0,2.37.71,3.94,3.94,0,0,0,2.8-1.11,3.7,3.7,0,0,0,1-2A3.92,3.92,0,0,0,39,50.83a2.63,2.63,0,0,0,.06-.39,4,4,0,0,0,3.14-1A3.43,3.43,0,0,0,43.52,47a2.88,2.88,0,0,0-.06-.83A3.87,3.87,0,0,0,45.74,45a4,4,0,0,0,0-5.58l0,0c1.07-1.13,3-3.16,4.63-4.63,2.33-2.15,2.14-6.73,2-8.52l4.25-3.54s0-.05.06-.07h0l.07-.11a1.2,1.2,0,0,0,.18-.26Zm-44,19.07,4.51-4.53a1.6,1.6,0,0,1,2.21,0,1.58,1.58,0,0,1,0,2.19l-4.56,4.57,0,0a1.56,1.56,0,0,1-2.17-2.25Zm3.88,6.13a1.58,1.58,0,0,1,0-2.2l0,0,4.51-4.53.07-.08,2.1-2.11a1.55,1.55,0,0,1,2.2,0h0a1.56,1.56,0,0,1,0,2.22L19,47.25a1.56,1.56,0,0,1-2.2,0h0Zm3.9,3.9a1.58,1.58,0,0,1,0-2.22l4.55-4.57a1.57,1.57,0,1,1,2.21,2.23h0l-1.06,1.06-2.06,2.06v0l-1.42,1.43a1.59,1.59,0,0,1-2.21,0ZM26,53.62a1.58,1.58,0,0,1,0-2.22l2.06-2.07a1.54,1.54,0,0,1,2.19,0h0a1.59,1.59,0,0,1,0,2.23l-2.07,2.06A1.59,1.59,0,0,1,26,53.62Zm5.64.59a1.53,1.53,0,0,1-1,.37L32,53.23a.5.5,0,0,1,.07-.08A1.35,1.35,0,0,1,31.68,54.21Z"></path></g></g></svg>