<svg xmlns="http://www.w3.org/2000/svg" width="57" height="57" viewBox="0 0 57 57" fill="none"><g clip-path="url(#clip0_37_327)"><path d="M8.01562 56.993C8.25183 56.993 8.47837 56.8992 8.64539 56.7321C8.81242 56.5651 8.90625 56.3386 8.90625 56.1024V46.2645C8.90625 44.3176 9.94472 42.4829 11.6155 41.4819L18.5873 37.2977L22.4135 42.0804C22.4919 42.1781 22.59 42.2582 22.7014 42.3156C22.8128 42.373 22.935 42.4063 23.0601 42.4135L23.1099 42.4152C23.3451 42.4152 23.5731 42.3226 23.7405 42.1552L25.4541 40.4416V41.5264C25.4541 41.7626 25.5479 41.9891 25.7149 42.1562C25.8819 42.3232 26.1085 42.417 26.3447 42.417H26.4284L24.9428 56.008C24.928 56.1253 24.9367 56.2444 24.9685 56.3583C25.0002 56.4722 25.0542 56.5787 25.1275 56.6715C25.2008 56.7643 25.2919 56.8416 25.3954 56.8988C25.4988 56.9561 25.6127 56.9921 25.7303 57.0049C25.8478 57.0177 25.9668 57.0069 26.0801 56.9732C26.1935 56.9395 26.299 56.8836 26.3905 56.8087C26.482 56.7338 26.5577 56.6415 26.6131 56.537C26.6686 56.4325 26.7027 56.3181 26.7134 56.2003L28.2203 42.417H28.7797L30.2866 56.2003C30.3121 56.4354 30.4299 56.6506 30.6142 56.7988C30.7984 56.9469 31.0339 57.0158 31.269 56.9903C31.504 56.9648 31.7192 56.847 31.8674 56.6627C32.0155 56.4785 32.0844 56.243 32.0589 56.008L30.5734 42.417H30.6571C30.8933 42.417 31.1198 42.3232 31.2869 42.1562C31.4539 41.9891 31.5477 41.7626 31.5477 41.5264V40.4416L33.2613 42.1552C33.3441 42.2378 33.4425 42.3033 33.5507 42.348C33.6589 42.3926 33.7748 42.4154 33.8918 42.4152L33.9417 42.4135C34.0668 42.4063 34.189 42.373 34.3004 42.3156C34.4118 42.2582 34.5099 42.1781 34.5883 42.0804L38.4144 37.2977L45.388 41.4819C46.2113 41.9801 46.8926 42.6817 47.3664 43.5193C47.8403 44.3569 48.0907 45.3022 48.0938 46.2645V56.1024C48.0938 56.3386 48.1876 56.5651 48.3546 56.7321C48.5216 56.8992 48.7482 56.993 48.9844 56.993C49.2206 56.993 49.4471 56.8992 49.6141 56.7321C49.7812 56.5651 49.875 56.3386 49.875 56.1024V46.2645C49.875 43.6942 48.5052 41.277 46.3018 39.9553L38.7743 35.4399L35.9527 32.3049C35.8353 32.1793 35.6833 32.0914 35.5159 32.0521C35.3486 32.0128 35.1733 32.0239 35.0123 32.084V28.5856C36.3083 27.5907 37.3583 26.3113 38.0813 24.8461C38.8044 23.3809 39.181 21.7692 39.1822 20.1354V16.0884L40.9011 8.13329C41.0308 7.42997 41.0183 6.7078 40.8644 6.00936C40.7106 5.31093 40.4184 4.65039 40.0051 4.0667C39.5953 3.48048 39.0723 2.98224 38.4668 2.60136C37.8614 2.22049 37.1859 1.96469 36.48 1.84904L25.8673 0.0802624C25.1076 -0.0466742 24.3293 -0.00645489 23.5867 0.198119C22.844 0.402693 22.1549 0.766703 21.5674 1.26479C20.5647 2.11593 19.9162 3.31085 19.7487 4.61532C18.6978 4.81126 17.7466 5.37236 17.0608 6.22023C16.6311 6.75254 16.3272 7.37504 16.1717 8.04126C16.0163 8.70748 16.0133 9.40021 16.1631 10.0677L17.8072 16.0705V20.1336C17.8072 23.5732 19.4459 26.6298 21.9771 28.5856V32.0822C21.8169 32.0249 21.6436 32.0155 21.4782 32.055C21.3127 32.0945 21.1624 32.1814 21.0455 32.3049L18.2258 35.4381L10.6982 39.9553C9.61091 40.6116 8.71098 41.5368 8.08514 42.6419C7.45929 43.7469 7.12863 44.9945 7.125 46.2645V56.1024C7.125 56.3386 7.21883 56.5651 7.38586 56.7321C7.55288 56.8992 7.77942 56.993 8.01562 56.993ZM29.7647 38.8296V40.634H27.2353V38.8296C27.2353 38.7797 27.2139 38.7352 27.2068 38.6871L28.5 37.3939L29.795 38.6889C29.7861 38.7352 29.7647 38.7797 29.7647 38.8296ZM37.0357 36.1684L33.817 40.1922L30.0212 36.3964L35.0746 33.9899L37.0357 36.1684ZM18.4448 7.34064C18.7022 7.02109 19.028 6.76346 19.3983 6.58679C19.7686 6.41013 20.1739 6.31894 20.5841 6.31998C21.0757 6.31998 21.4747 5.80164 21.4747 5.31001C21.4738 4.84744 21.5642 4.38924 21.7407 3.96168C21.9173 3.53412 22.1765 3.14562 22.5035 2.81845C22.8305 2.49128 23.2188 2.23189 23.6463 2.05514C24.0738 1.8784 24.5319 1.78778 24.9945 1.78848C25.1891 1.78863 25.3833 1.80471 25.5752 1.83658L36.1879 3.60536C37.1497 3.76567 37.9869 4.29292 38.548 5.08914C39.1091 5.88714 39.3229 6.85436 39.1537 7.78417L37.8195 13.9562L36.138 11.8668V9.93057C36.138 9.69437 36.0442 9.46783 35.8771 9.30081C35.7101 9.13378 35.4836 9.03995 35.2474 9.03995H21.7419C21.5057 9.03995 21.2792 9.13378 21.1122 9.30081C20.9451 9.46783 20.8513 9.69437 20.8513 9.93057V11.8686L19.1003 14.0506L17.8927 9.64557C17.7199 8.82976 17.9212 7.98901 18.4448 7.34064ZM19.5884 20.1336V16.2896L22.4384 12.7396C22.565 12.5813 22.6341 12.3848 22.6343 12.1821V10.8212H34.3585V12.1821C34.3585 12.3848 34.4276 12.5815 34.5545 12.7396L37.4027 16.2754V20.1318C37.4027 25.0427 33.4073 29.038 28.4964 29.038C23.5855 29.038 19.5884 25.0445 19.5884 20.1336ZM28.4947 30.8211C30.1975 30.8211 31.8024 30.4114 33.231 29.7007V32.8944L28.5 35.1477L23.7583 32.8891V29.6989C25.1887 30.4096 26.7936 30.8211 28.4947 30.8211ZM21.9254 33.9899L26.9788 36.3964L23.183 40.1922L19.9643 36.1684L21.9254 33.9899Z" fill="#565656"></path><path d="M16.9219 56.9929C17.1581 56.9929 17.3846 56.8991 17.5517 56.7321C17.7187 56.5651 17.8125 56.3385 17.8125 56.1023V51.9306C17.8144 50.0937 17.1273 48.323 15.887 46.9681L14.5386 45.4914C14.4596 45.405 14.3644 45.3349 14.2584 45.2853C14.1524 45.2356 14.0377 45.2074 13.9207 45.2021C13.8038 45.1968 13.6869 45.2146 13.5769 45.2544C13.4668 45.2943 13.3657 45.3555 13.2792 45.4344C13.1928 45.5133 13.1228 45.6085 13.0731 45.7146C13.0235 45.8206 12.9952 45.9353 12.9899 46.0523C12.9846 46.1692 13.0024 46.286 13.0423 46.3961C13.0821 46.5062 13.1433 46.6073 13.2222 46.6937L14.5707 48.1704C15.5113 49.1966 16.0325 50.5385 16.0313 51.9306V56.1023C16.0313 56.3385 16.1251 56.5651 16.2921 56.7321C16.4592 56.8991 16.6857 56.9929 16.9219 56.9929ZM42.4615 45.4914L41.1131 46.9698C39.8729 48.3241 39.1858 50.0943 39.1875 51.9306V56.1023C39.1875 56.3385 39.2814 56.5651 39.4484 56.7321C39.6154 56.8991 39.8419 56.9929 40.0781 56.9929C40.3144 56.9929 40.5409 56.8991 40.7079 56.7321C40.8749 56.5651 40.9688 56.3385 40.9688 56.1023V51.9306C40.9688 50.5359 41.4871 49.2 42.4276 48.1704L43.776 46.6937C43.855 46.6074 43.9161 46.5064 43.9561 46.3965C43.996 46.2865 44.0138 46.1698 44.0086 46.0529C44.0034 45.936 43.9752 45.8214 43.9257 45.7154C43.8762 45.6094 43.8062 45.5142 43.7199 45.4353C43.6336 45.3563 43.5326 45.2952 43.4226 45.2553C43.3127 45.2154 43.1959 45.1975 43.0791 45.2027C42.9622 45.2079 42.8475 45.2361 42.7416 45.2856C42.6356 45.3352 42.5404 45.4051 42.4615 45.4914Z" fill="#565656"></path></g><defs><clipPath id="clip0_37_327"><rect width="57" height="57" fill="white"></rect></clipPath></defs></svg>