<svg xmlns="http://www.w3.org/2000/svg" viewBox="0 0 42.75 57"><g id="Layer_2" data-name="Layer 2"><g id="Layer_1-2" data-name="Layer 1"><path d="M.89,57a.89.89,0,0,0,.89-.89V46.26a5.65,5.65,0,0,1,2.71-4.79l7-4.18,3.83,4.78a.91.91,0,0,0,.65.34H16a.94.94,0,0,0,.63-.26l1.71-1.72v1.09a.89.89,0,0,0,.89.89h.08L17.82,56a.9.9,0,0,0,.77,1A1.16,1.16,0,0,0,19,57a.89.89,0,0,0,.63-.78L21.1,42.41h.56l1.5,13.78A.9.9,0,0,0,24.94,56h0L23.45,42.41h.08a.89.89,0,0,0,.89-.89V40.43l1.72,1.72a.9.9,0,0,0,.63.26h.05a.89.89,0,0,0,.64-.34l3.83-4.78,7,4.18A5.63,5.63,0,0,1,41,46.26v9.83a.89.89,0,0,0,1.78,0V46.26A7.4,7.4,0,0,0,39.18,40l-7.53-4.52L28.83,32.3a.85.85,0,0,0-.94-.22v-3.5a10.65,10.65,0,0,0,4.17-8.45V16.08l1.72-7.95a5.41,5.41,0,0,0-4.42-6.29L18.74.07a5.33,5.33,0,0,0-4.3,1.19,5.23,5.23,0,0,0-1.81,3.35,4.45,4.45,0,0,0-2.69,1.6A4.53,4.53,0,0,0,9,10.06l1.64,6v4.07a10.67,10.67,0,0,0,4.17,8.45v3.49a.89.89,0,0,0-.93.23L11.1,35.43,3.57,40A7.39,7.39,0,0,0,0,46.26v9.83a.9.9,0,0,0,.89.9ZM22.64,38.82v1.81H20.11V38.82a.7.7,0,0,0,0-.14l1.3-1.29,1.29,1.29a.7.7,0,0,0,0,.14Zm7.27-2.66-3.22,4L22.9,36.39,28,34ZM11.32,7.33a2.77,2.77,0,0,1,2.14-1,1,1,0,0,0,.89-1,3.52,3.52,0,0,1,3.51-3.52,3.81,3.81,0,0,1,.59.05L29.06,3.6a3.61,3.61,0,0,1,3,4.18L30.7,14,29,11.86V9.92A.88.88,0,0,0,28.13,9H14.62a.89.89,0,0,0-.89.89v1.94L12,14l-1.21-4.4a2.79,2.79,0,0,1,.55-2.31Zm1.14,12.8V16.28l2.85-3.55a.87.87,0,0,0,.2-.56V10.81H27.23v1.36a.87.87,0,0,0,.2.56l2.85,3.54v3.85a8.91,8.91,0,0,1-17.82,0Zm8.91,10.68a10.53,10.53,0,0,0,4.74-1.12v3.2l-4.73,2.25-4.75-2.26V29.69a10.64,10.64,0,0,0,4.74,1.12ZM14.8,34l5.06,2.41-3.8,3.79-3.22-4Z"></path><path d="M9.8,57a.89.89,0,0,0,.89-.89V51.92a7.35,7.35,0,0,0-1.93-5L7.41,45.48A.89.89,0,0,0,6.1,46.69l1.35,1.47a5.58,5.58,0,0,1,1.46,3.76v4.17A.89.89,0,0,0,9.8,57ZM35.34,45.48,34,47a7.37,7.37,0,0,0-1.93,5v4.17A.89.89,0,0,0,33,57a.88.88,0,0,0,.88-.89V51.92a5.58,5.58,0,0,1,1.46-3.76l1.35-1.47a.89.89,0,1,0-1.26-1.26.12.12,0,0,0,0,0Z"></path></g></g></svg>