<svg xmlns="http://www.w3.org/2000/svg" width="57" height="57" viewBox="0 0 57 57" fill="none"><g clip-path="url(#clip0_37_320)"><path d="M24.0469 5.34373C23.4196 5.34733 22.8046 5.51845 22.2656 5.83938V5.34373C22.2661 4.69692 22.0903 4.06222 21.7571 3.50779C21.424 2.95336 20.9461 2.50017 20.3748 2.19688C19.8035 1.89359 19.1604 1.75166 18.5145 1.78635C17.8686 1.82103 17.2444 2.03102 16.7089 2.39375C16.4344 1.59854 15.8866 0.926532 15.1631 0.497306C14.4396 0.0680806 13.5872 -0.0905166 12.7577 0.0497384C11.9283 0.189993 11.1754 0.620002 10.6333 1.26324C10.0911 1.90648 9.7947 2.72122 9.79688 3.56248V4.05813C9.25788 3.7372 8.64293 3.56608 8.01563 3.56248C7.07113 3.56356 6.16562 3.93924 5.49775 4.6071C4.82989 5.27497 4.45421 6.18048 4.45313 7.12498V14.3764C4.16289 14.2964 3.86357 14.2539 3.5625 14.25C2.618 14.2511 1.71249 14.6267 1.04463 15.2946C0.376764 15.9625 0.00108355 16.868 3.95185e-06 17.8125V27.0658C-0.00126502 28.7122 0.303087 30.3445 0.897594 31.8798L5.16285 42.9257C5.28241 43.2326 5.34375 43.5591 5.34375 43.8885V47.0039C5.06405 47.2525 4.84011 47.5575 4.68661 47.8989C4.53312 48.2402 4.45355 48.6101 4.45313 48.9844V54.3281C4.45266 54.6791 4.52145 55.0268 4.65556 55.3511C4.78967 55.6755 4.98646 55.9702 5.23466 56.2185C5.48286 56.4667 5.77759 56.6634 6.10197 56.7976C6.42635 56.9317 6.774 57.0005 7.125 57H24.9375C25.2885 57.0005 25.6362 56.9317 25.9605 56.7976C26.2849 56.6634 26.5796 56.4667 26.8279 56.2185C27.076 55.9702 27.2728 55.6755 27.4069 55.3511C27.5411 55.0268 27.6098 54.6791 27.6094 54.3281V48.9844C27.6155 48.387 27.4176 47.8054 27.0483 47.3358C26.6791 46.8662 26.1607 46.5366 25.5788 46.4015L27.0572 37.9406C27.4281 35.8593 27.6129 33.7491 27.6094 31.635V8.90623C27.6083 7.96173 27.2326 7.05622 26.5648 6.38835C25.8969 5.72049 24.9914 5.34481 24.0469 5.34373ZM25.8281 48.9844V54.3281C25.8293 54.4454 25.807 54.5617 25.7627 54.6703C25.7183 54.7789 25.6528 54.8775 25.5698 54.9604C25.4869 55.0434 25.3883 55.1089 25.2797 55.1533C25.1711 55.1976 25.0548 55.2199 24.9375 55.2187H7.125C7.00772 55.2199 6.89139 55.1976 6.78281 55.1533C6.67423 55.1089 6.57559 55.0434 6.49266 54.9604C6.40972 54.8775 6.34417 54.7789 6.29982 54.6703C6.25547 54.5617 6.23322 54.4454 6.23438 54.3281V48.9844C6.23321 48.8671 6.25546 48.7507 6.2998 48.6422C6.34415 48.5336 6.40971 48.4349 6.49264 48.352C6.57558 48.2691 6.67422 48.2035 6.7828 48.1592C6.89139 48.1148 7.00772 48.0926 7.125 48.0937H24.9553C25.0712 48.0944 25.1859 48.118 25.2927 48.1633C25.3994 48.2085 25.4961 48.2744 25.5773 48.3572C25.6584 48.44 25.7224 48.538 25.7654 48.6457C25.8085 48.7533 25.8298 48.8684 25.8281 48.9844ZM25.8281 31.635C25.8257 33.6469 25.6529 35.655 25.3116 37.6378L23.7797 46.3125H7.125V43.8885C7.12506 43.3397 7.02361 42.7957 6.82575 42.2838L2.55881 31.2371C2.04404 29.9066 1.7804 28.4923 1.78125 27.0658V17.8125C1.78125 17.3401 1.96892 16.887 2.30297 16.5529C2.63702 16.2189 3.09009 16.0312 3.5625 16.0312C4.03492 16.0312 4.48799 16.2189 4.82204 16.5529C5.15609 16.887 5.34375 17.3401 5.34375 17.8125V25.8281C5.34396 25.9935 5.39009 26.1555 5.47702 26.2962C5.56394 26.4369 5.68824 26.5506 5.83604 26.6248L8.18088 27.7972C9.47227 28.4375 10.5585 29.4268 11.3163 30.6529C12.0742 31.879 12.4734 33.2929 12.4688 34.7344C12.4688 34.9706 12.5626 35.1971 12.7296 35.3641C12.8966 35.5311 13.1232 35.625 13.3594 35.625C13.5956 35.625 13.8221 35.5311 13.9891 35.3641C14.1562 35.1971 14.25 34.9706 14.25 34.7344C14.256 32.9618 13.7653 31.2231 12.8334 29.7153C11.9014 28.2075 10.5657 26.991 8.9775 26.2038L7.125 25.2776V17.8125C7.12173 16.9529 6.80507 16.124 6.23438 15.4812V7.12498C6.23438 6.65256 6.42205 6.19949 6.75609 5.86545C7.09014 5.5314 7.54321 5.34373 8.01563 5.34373C8.48805 5.34373 8.94111 5.5314 9.27516 5.86545C9.60921 6.19949 9.79688 6.65256 9.79688 7.12498V16.9219C9.79688 17.1581 9.89071 17.3846 10.0577 17.5516C10.2248 17.7186 10.4513 17.8125 10.6875 17.8125C10.9237 17.8125 11.1502 17.7186 11.3173 17.5516C11.4843 17.3846 11.5781 17.1581 11.5781 16.9219V3.56248C11.5781 3.09006 11.7658 2.63699 12.0998 2.30295C12.4339 1.9689 12.887 1.78123 13.3594 1.78123C13.8318 1.78123 14.2849 1.9689 14.6189 2.30295C14.953 2.63699 15.1406 3.09006 15.1406 3.56248V18.7031C15.1406 18.9393 15.2345 19.1658 15.4015 19.3329C15.5685 19.4999 15.795 19.5937 16.0313 19.5937C16.2675 19.5937 16.494 19.4999 16.661 19.3329C16.828 19.1658 16.9219 18.9393 16.9219 18.7031V5.34373C16.9219 4.87131 17.1095 4.41824 17.4436 4.0842C17.7776 3.75015 18.2307 3.56248 18.7031 3.56248C19.1755 3.56248 19.6286 3.75015 19.9627 4.0842C20.2967 4.41824 20.4844 4.87131 20.4844 5.34373V22.2656C20.4844 22.5018 20.5782 22.7283 20.7452 22.8954C20.9123 23.0624 21.1388 23.1562 21.375 23.1562C21.6112 23.1562 21.8377 23.0624 22.0048 22.8954C22.1718 22.7283 22.2656 22.5018 22.2656 22.2656V8.90623C22.2656 8.43381 22.4533 7.98075 22.7873 7.6467C23.1214 7.31265 23.5745 7.12498 24.0469 7.12498C24.5193 7.12498 24.9724 7.31265 25.3064 7.6467C25.6405 7.98075 25.8281 8.43381 25.8281 8.90623V31.635ZM53.4375 14.25C53.1364 14.2539 52.8371 14.2964 52.5469 14.3764V7.12498C52.5458 6.18048 52.1701 5.27497 51.5023 4.6071C50.8344 3.93924 49.9289 3.56356 48.9844 3.56248C48.3571 3.56608 47.7421 3.7372 47.2031 4.05813V3.56248C47.2053 2.72122 46.9089 1.90648 46.3668 1.26324C45.8246 0.620002 45.0718 0.189993 44.2423 0.0497384C43.4128 -0.0905166 42.5604 0.0680806 41.8369 0.497306C41.1134 0.926532 40.5656 1.59854 40.2911 2.39375C39.7556 2.03102 39.1314 1.82103 38.4855 1.78635C37.8396 1.75166 37.1965 1.89359 36.6252 2.19688C36.0539 2.50017 35.576 2.95336 35.2429 3.50779C34.9098 4.06222 34.734 4.69692 34.7344 5.34373V5.83938C34.1954 5.51845 33.5804 5.34733 32.9531 5.34373C32.0086 5.34481 31.1031 5.72049 30.4353 6.38835C29.7674 7.05622 29.3917 7.96173 29.3906 8.90623V31.635C29.3871 33.7491 29.5719 35.8593 29.9428 37.9406L31.4213 46.4015C30.8393 46.5366 30.3209 46.8662 29.9517 47.3358C29.5824 47.8054 29.3845 48.387 29.3906 48.9844V54.3281C29.3902 54.6791 29.4589 55.0268 29.5931 55.3511C29.7272 55.6755 29.924 55.9702 30.1722 56.2185C30.4204 56.4667 30.7151 56.6634 31.0395 56.7976C31.3638 56.9317 31.7115 57.0005 32.0625 57H49.875C50.226 57.0005 50.5737 56.9317 50.898 56.7976C51.2224 56.6634 51.5172 56.4667 51.7654 56.2185C52.0135 55.9702 52.2103 55.6755 52.3445 55.3511C52.4786 55.0268 52.5473 54.6791 52.5469 54.3281V48.9844C52.5465 48.6101 52.4669 48.2402 52.3134 47.8989C52.1599 47.5576 51.9359 47.2526 51.6563 47.0039V43.8885C51.6563 43.5591 51.7176 43.2326 51.8372 42.9257L56.1024 31.8799C56.6969 30.3445 57.0013 28.7122 57 27.0658V17.8125C56.9989 16.868 56.6232 15.9625 55.9554 15.2946C55.2875 14.6267 54.382 14.2511 53.4375 14.25ZM50.7656 54.3281C50.7668 54.4454 50.7445 54.5617 50.7002 54.6703C50.6558 54.7789 50.5903 54.8775 50.5074 54.9604C50.4244 55.0434 50.3258 55.1089 50.2172 55.1533C50.1086 55.1976 49.9923 55.2199 49.875 55.2187H32.0625C31.9452 55.2199 31.8289 55.1976 31.7203 55.1533C31.6117 55.1089 31.5131 55.0434 31.4302 54.9604C31.3472 54.8775 31.2817 54.7789 31.2373 54.6703C31.193 54.5617 31.1707 54.4454 31.1719 54.3281V48.9844C31.1702 48.8684 31.1915 48.7533 31.2346 48.6457C31.2776 48.538 31.3416 48.44 31.4227 48.3572C31.5039 48.2744 31.6006 48.2085 31.7074 48.1633C31.8141 48.118 31.9288 48.0944 32.0447 48.0937H49.875C49.9923 48.0926 50.1086 48.1148 50.2172 48.1592C50.3258 48.2035 50.4244 48.2691 50.5074 48.352C50.5903 48.4349 50.6559 48.5336 50.7002 48.6422C50.7445 48.7507 50.7668 48.8671 50.7656 48.9844V54.3281ZM55.2188 27.0658C55.2196 28.4923 54.956 29.9066 54.4412 31.2371L50.1743 42.2838C49.9764 42.7957 49.8749 43.3397 49.875 43.8885V46.3125H33.2203L31.6884 37.6378C31.3471 35.655 31.1743 33.6469 31.1719 31.635V8.90623C31.1719 8.43381 31.3595 7.98075 31.6936 7.6467C32.0276 7.31265 32.4807 7.12498 32.9531 7.12498C33.4255 7.12498 33.8786 7.31265 34.2127 7.6467C34.5467 7.98075 34.7344 8.43381 34.7344 8.90623V22.2656C34.7344 22.5018 34.8282 22.7283 34.9952 22.8954C35.1623 23.0624 35.3888 23.1562 35.625 23.1562C35.8612 23.1562 36.0877 23.0624 36.2548 22.8954C36.4218 22.7283 36.5156 22.5018 36.5156 22.2656V5.34373C36.5156 4.87131 36.7033 4.41824 37.0373 4.0842C37.3714 3.75015 37.8245 3.56248 38.2969 3.56248C38.7693 3.56248 39.2224 3.75015 39.5564 4.0842C39.8905 4.41824 40.0781 4.87131 40.0781 5.34373V18.7031C40.0781 18.9393 40.172 19.1658 40.339 19.3329C40.506 19.4999 40.7325 19.5937 40.9688 19.5937C41.205 19.5937 41.4315 19.4999 41.5985 19.3329C41.7655 19.1658 41.8594 18.9393 41.8594 18.7031V3.56248C41.8594 3.09006 42.047 2.63699 42.3811 2.30295C42.7151 1.9689 43.1682 1.78123 43.6406 1.78123C44.113 1.78123 44.5661 1.9689 44.9002 2.30295C45.2342 2.63699 45.4219 3.09006 45.4219 3.56248V16.9219C45.4219 17.1581 45.5157 17.3846 45.6827 17.5516C45.8498 17.7186 46.0763 17.8125 46.3125 17.8125C46.5487 17.8125 46.7752 17.7186 46.9423 17.5516C47.1093 17.3846 47.2031 17.1581 47.2031 16.9219V7.12498C47.2031 6.65256 47.3908 6.19949 47.7248 5.86545C48.0589 5.5314 48.512 5.34373 48.9844 5.34373C49.4568 5.34373 49.9099 5.5314 50.2439 5.86545C50.578 6.19949 50.7656 6.65256 50.7656 7.12498V15.4812C50.1949 16.124 49.8783 16.9529 49.875 17.8125V25.2776L48.0225 26.2038C46.4343 26.991 45.0986 28.2075 44.1666 29.7153C43.2347 31.2231 42.7439 32.9618 42.75 34.7344C42.75 34.9706 42.8438 35.1971 43.0109 35.3641C43.1779 35.5311 43.4044 35.625 43.6406 35.625C43.8768 35.625 44.1034 35.5311 44.2704 35.3641C44.4374 35.1971 44.5313 34.9706 44.5313 34.7344C44.5266 33.2929 44.9258 31.879 45.6837 30.6529C46.4415 29.4268 47.5277 28.4375 48.8191 27.7972L51.164 26.6248C51.3118 26.5506 51.4361 26.4369 51.523 26.2962C51.6099 26.1555 51.6561 25.9935 51.6563 25.8281V17.8125C51.6563 17.3401 51.8439 16.887 52.178 16.5529C52.512 16.2189 52.9651 16.0312 53.4375 16.0312C53.9099 16.0312 54.363 16.2189 54.697 16.5529C55.0311 16.887 55.2188 17.3401 55.2188 17.8125V27.0658Z" fill="#565656"></path></g><defs><clipPath id="clip0_37_320"><rect width="57" height="57" fill="white"></rect></clipPath></defs></svg>