<svg xmlns="http://www.w3.org/2000/svg" viewBox="0 0 57 57"><g id="Layer_2" data-name="Layer 2"><g id="Layer_1-2" data-name="Layer 1"><path d="M24.05,5.35a3.45,3.45,0,0,0-1.78.49V5.35A3.55,3.55,0,0,0,16.71,2.4,3.55,3.55,0,0,0,9.8,3.56v.5A3.54,3.54,0,0,0,4.45,7.13v7.25a3.83,3.83,0,0,0-.89-.13A3.57,3.57,0,0,0,0,17.82v9.25a13.2,13.2,0,0,0,.9,4.81L5.16,42.93a2.64,2.64,0,0,1,.18,1V47a2.66,2.66,0,0,0-.89,2v5.34A2.67,2.67,0,0,0,7.12,57H24.94a2.67,2.67,0,0,0,2.67-2.67h0V49a2.63,2.63,0,0,0-2-2.59l1.48-8.46a36,36,0,0,0,.55-6.3V8.91A3.56,3.56,0,0,0,24.05,5.35ZM25.83,49v5.34a.88.88,0,0,1-.88.89H7.13a.88.88,0,0,1-.89-.87s0,0,0,0V49a.87.87,0,0,1,.87-.89H25a.87.87,0,0,1,.87.88Zm0-17.35a35.49,35.49,0,0,1-.52,6l-1.53,8.68H7.13V43.89a4.83,4.83,0,0,0-.3-1.6l-4.27-11a11.68,11.68,0,0,1-.78-4.17V17.82a1.79,1.79,0,0,1,3.57,0v8a.89.89,0,0,0,.49.8L8.18,27.8a7.72,7.72,0,0,1,4.29,6.94.89.89,0,0,0,1.78,0A9.47,9.47,0,0,0,9,26.21l-1.85-.93V17.82a3.61,3.61,0,0,0-.89-2.34V7.13a1.78,1.78,0,0,1,3.56,0h0v9.79a.89.89,0,0,0,1.78,0V3.56a1.78,1.78,0,0,1,3.56,0V18.71a.89.89,0,0,0,1.78,0V5.35a1.79,1.79,0,1,1,3.57,0V22.27a.89.89,0,0,0,1.78,0V8.91a1.78,1.78,0,1,1,3.56,0V31.64ZM53.44,14.25a3.83,3.83,0,0,0-.89.13V7.13A3.54,3.54,0,0,0,47.2,4.06v-.5A3.55,3.55,0,0,0,40.29,2.4a3.57,3.57,0,0,0-5.56,2.95v.49A3.45,3.45,0,0,0,33,5.35a3.56,3.56,0,0,0-3.56,3.56V31.64a36,36,0,0,0,.55,6.3l1.48,8.46a2.63,2.63,0,0,0-2,2.59v5.34A2.67,2.67,0,0,0,32.06,57H49.88a2.67,2.67,0,0,0,2.67-2.67h0V49a2.66,2.66,0,0,0-.89-2V43.89a2.64,2.64,0,0,1,.18-1l4.26-11a13.2,13.2,0,0,0,.9-4.81V17.82a3.57,3.57,0,0,0-3.56-3.57ZM50.77,54.33a.88.88,0,0,1-.88.89H32.06a.89.89,0,0,1-.89-.87V49A.87.87,0,0,1,32,48.1H49.88a.88.88,0,0,1,.89.87v5.36Zm4.45-27.26a11.43,11.43,0,0,1-.78,4.17L50.17,42.29a4.59,4.59,0,0,0-.3,1.6v2.43H33.22l-1.53-8.68a35.49,35.49,0,0,1-.52-6V8.91a1.78,1.78,0,1,1,3.56,0V22.27a.9.9,0,0,0,1.79,0V5.35a1.78,1.78,0,0,1,3.56,0V18.71a.89.89,0,0,0,1.78,0V3.56a1.78,1.78,0,0,1,3.56,0V16.92a.89.89,0,0,0,1.78,0V7.13a1.79,1.79,0,0,1,3.57,0v8.35a3.56,3.56,0,0,0-.9,2.34v7.46L48,26.21a9.47,9.47,0,0,0-5.27,8.53.89.89,0,0,0,1.78,0,7.72,7.72,0,0,1,4.29-6.94l2.34-1.17a.88.88,0,0,0,.5-.8v-8a1.78,1.78,0,1,1,3.56,0h0Z"></path></g></g></svg>