<svg xmlns="http://www.w3.org/2000/svg" width="19" height="15" viewBox="0 0 19 15" fill="none"><path d="M14.9749 5.25956C14.9749 6.19036 14.6602 7.05085 14.0307 7.84103C13.4012 8.63121 12.5424 9.25565 11.4542 9.71435C10.3661 10.1731 9.18248 10.4024 7.90346 10.4024C7.32757 10.4024 6.73828 10.3488 6.1356 10.2417C5.30525 10.831 4.37444 11.2596 3.34319 11.5274C3.10212 11.5877 2.81417 11.6413 2.47935 11.6881H2.44922C2.37556 11.6881 2.30692 11.6613 2.2433 11.6078C2.17969 11.5542 2.14118 11.4839 2.12779 11.3968C2.12109 11.3767 2.11775 11.355 2.11775 11.3315C2.11775 11.3081 2.11942 11.2863 2.12277 11.2663C2.12612 11.2462 2.13281 11.2261 2.14286 11.206L2.16797 11.1558L2.20312 11.1005L2.2433 11.0503L2.2885 11.0001L2.32868 10.9549C2.36217 10.9147 2.43917 10.831 2.55971 10.7038C2.68025 10.5765 2.7673 10.4777 2.82087 10.4074C2.87444 10.3371 2.94978 10.24 3.04688 10.1161C3.14397 9.99226 3.22768 9.86335 3.29799 9.72942C3.3683 9.59549 3.43694 9.44817 3.50391 9.28746C2.67355 8.80531 2.02065 8.21268 1.5452 7.50956C1.06975 6.80643 0.832031 6.05643 0.832031 5.25956C0.832031 4.32875 1.14676 3.46826 1.77623 2.67808C2.40569 1.8879 3.26451 1.26346 4.35268 0.804757C5.44085 0.346052 6.62444 0.116699 7.90346 0.116699C9.18248 0.116699 10.3661 0.346052 11.4542 0.804757C12.5424 1.26346 13.4012 1.8879 14.0307 2.67808C14.6602 3.46826 14.9749 4.32875 14.9749 5.25956ZM18.832 7.83098C18.832 8.63456 18.5943 9.38623 18.1189 10.086C17.6434 10.7858 16.9905 11.3767 16.1602 11.8589C16.2271 12.0196 16.2958 12.1669 16.3661 12.3008C16.4364 12.4348 16.5201 12.5637 16.6172 12.6876C16.7143 12.8115 16.7896 12.9086 16.8432 12.9789C16.8968 13.0492 16.9838 13.1479 17.1044 13.2752C17.2249 13.4024 17.3019 13.4861 17.3354 13.5263C17.3421 13.533 17.3555 13.5481 17.3756 13.5715C17.3956 13.5949 17.4107 13.6117 17.4208 13.6217C17.4308 13.6318 17.4442 13.6485 17.4609 13.6719C17.4777 13.6954 17.4894 13.7138 17.4961 13.7272L17.5212 13.7774L17.5413 13.8377L17.5463 13.903L17.5363 13.9683C17.5162 14.062 17.4727 14.1357 17.4057 14.1892C17.3387 14.2428 17.2651 14.2663 17.1847 14.2596C16.8499 14.2127 16.5619 14.1591 16.3209 14.0988C15.2896 13.831 14.3588 13.4024 13.5285 12.8131C12.9258 12.9203 12.3365 12.9738 11.7606 12.9738C9.94587 12.9738 8.36551 12.5319 7.01953 11.6479C7.40792 11.6747 7.70257 11.6881 7.90346 11.6881C8.98158 11.6881 10.0162 11.5375 11.0073 11.2361C11.9983 10.9348 12.8823 10.5029 13.659 9.94036C14.4961 9.32429 15.139 8.61447 15.5876 7.81089C16.0363 7.00732 16.2606 6.15688 16.2606 5.25956C16.2606 4.74393 16.1836 4.235 16.0296 3.73277C16.8934 4.20822 17.5765 4.8042 18.0787 5.52072C18.5809 6.23723 18.832 7.00732 18.832 7.83098Z" fill="white"></path></svg>